<mxfile host="app.diagrams.net" modified="2023-12-07T12:17:48.481Z" agent="Mozilla/5.0 (Windows NT 10.0; Win64; x64) AppleWebKit/537.36 (KHTML, like Gecko) Chrome/119.0.0.0 Safari/537.36" etag="lDmXsd-bFOmX51ts27to" version="22.1.7" type="github" pages="4">
  <diagram name="Page-1" id="03018318-947c-dd8e-b7a3-06fadd420f32">
    <mxGraphModel dx="1105" dy="705" grid="1" gridSize="10" guides="1" tooltips="1" connect="1" arrows="1" fold="1" page="1" pageScale="1" pageWidth="1100" pageHeight="850" background="none" math="0" shadow="0">
      <root>
        <mxCell id="0" />
        <mxCell id="1" parent="0" />
        <mxCell id="677b7b8949515195-1" value="" style="whiteSpace=wrap;html=1;rounded=0;shadow=0;labelBackgroundColor=none;strokeColor=#000000;strokeWidth=1;fillColor=none;fontFamily=Verdana;fontSize=12;fontColor=#000000;align=center;comic=1;" parent="1" vertex="1">
          <mxGeometry x="20" y="60" width="1060" height="775" as="geometry" />
        </mxCell>
        <mxCell id="iPEnNcosg1Q9wk2W3M9G-41" value="" style="rounded=0;whiteSpace=wrap;html=1;" parent="1" vertex="1">
          <mxGeometry x="30" y="184" width="180" height="536" as="geometry" />
        </mxCell>
        <mxCell id="677b7b8949515195-9" value="" style="line;strokeWidth=1;html=1;rounded=0;shadow=0;labelBackgroundColor=none;fillColor=none;fontFamily=Verdana;fontSize=14;fontColor=#000000;align=center;comic=1;" parent="1" vertex="1">
          <mxGeometry x="20" y="120" width="1060" height="70" as="geometry" />
        </mxCell>
        <mxCell id="677b7b8949515195-27" value="イベント一覧" style="text;html=1;points=[];align=left;verticalAlign=top;spacingTop=-4;fontSize=14;fontFamily=Verdana" parent="1" vertex="1">
          <mxGeometry x="40" y="204" width="170" height="20" as="geometry" />
        </mxCell>
        <mxCell id="677b7b8949515195-28" value="イベント新規登録" style="text;html=1;points=[];align=left;verticalAlign=top;spacingTop=-4;fontSize=14;fontFamily=Verdana" parent="1" vertex="1">
          <mxGeometry x="40" y="240" width="170" height="20" as="geometry" />
        </mxCell>
        <mxCell id="677b7b8949515195-29" value="アカウント" style="text;html=1;points=[];align=left;verticalAlign=top;spacingTop=-4;fontSize=14;fontFamily=Verdana" parent="1" vertex="1">
          <mxGeometry x="40" y="275" width="170" height="20" as="geometry" />
        </mxCell>
        <mxCell id="677b7b8949515195-30" value="ログアウト" style="text;html=1;points=[];align=left;verticalAlign=top;spacingTop=-4;fontSize=14;fontFamily=Verdana" parent="1" vertex="1">
          <mxGeometry x="40" y="311" width="170" height="20" as="geometry" />
        </mxCell>
        <mxCell id="iPEnNcosg1Q9wk2W3M9G-42" value="EVM" style="whiteSpace=wrap;html=1;rounded=0;shadow=0;labelBackgroundColor=none;strokeWidth=1;fontFamily=Verdana;fontSize=28;align=center;comic=1;" parent="1" vertex="1">
          <mxGeometry x="50" y="86" width="190" height="50" as="geometry" />
        </mxCell>
        <mxCell id="iPEnNcosg1Q9wk2W3M9G-44" value="" style="rounded=0;whiteSpace=wrap;html=1;" parent="1" vertex="1">
          <mxGeometry x="240" y="184" width="820" height="536" as="geometry" />
        </mxCell>
        <mxCell id="iPEnNcosg1Q9wk2W3M9G-45" value="YYYY年MM月" style="rounded=0;whiteSpace=wrap;html=1;" parent="1" vertex="1">
          <mxGeometry x="590" y="200" width="120" height="60" as="geometry" />
        </mxCell>
        <mxCell id="iPEnNcosg1Q9wk2W3M9G-46" value="　次の月" style="triangle;whiteSpace=wrap;html=1;align=left;" parent="1" vertex="1">
          <mxGeometry x="810" y="205" width="100" height="50" as="geometry" />
        </mxCell>
        <mxCell id="iPEnNcosg1Q9wk2W3M9G-47" value="前の月　" style="triangle;whiteSpace=wrap;html=1;direction=west;align=right;" parent="1" vertex="1">
          <mxGeometry x="390" y="205" width="100" height="50" as="geometry" />
        </mxCell>
        <mxCell id="iPEnNcosg1Q9wk2W3M9G-48" value="" style="shape=table;startSize=0;container=1;collapsible=0;childLayout=tableLayout;" parent="1" vertex="1">
          <mxGeometry x="340" y="300" width="620" height="360" as="geometry" />
        </mxCell>
        <mxCell id="iPEnNcosg1Q9wk2W3M9G-90" style="shape=tableRow;horizontal=0;startSize=0;swimlaneHead=0;swimlaneBody=0;strokeColor=inherit;top=0;left=0;bottom=0;right=0;collapsible=0;dropTarget=0;fillColor=none;points=[[0,0.5],[1,0.5]];portConstraint=eastwest;" parent="iPEnNcosg1Q9wk2W3M9G-48" vertex="1">
          <mxGeometry width="620" height="44" as="geometry" />
        </mxCell>
        <mxCell id="iPEnNcosg1Q9wk2W3M9G-91" value="日&lt;br&gt;" style="shape=partialRectangle;html=1;whiteSpace=wrap;connectable=0;strokeColor=inherit;overflow=hidden;fillColor=none;top=0;left=0;bottom=0;right=0;pointerEvents=1;" parent="iPEnNcosg1Q9wk2W3M9G-90" vertex="1">
          <mxGeometry width="88" height="44" as="geometry">
            <mxRectangle width="88" height="44" as="alternateBounds" />
          </mxGeometry>
        </mxCell>
        <mxCell id="iPEnNcosg1Q9wk2W3M9G-92" value="月" style="shape=partialRectangle;html=1;whiteSpace=wrap;connectable=0;strokeColor=inherit;overflow=hidden;fillColor=none;top=0;left=0;bottom=0;right=0;pointerEvents=1;" parent="iPEnNcosg1Q9wk2W3M9G-90" vertex="1">
          <mxGeometry x="88" width="90" height="44" as="geometry">
            <mxRectangle width="90" height="44" as="alternateBounds" />
          </mxGeometry>
        </mxCell>
        <mxCell id="iPEnNcosg1Q9wk2W3M9G-93" value="火" style="shape=partialRectangle;html=1;whiteSpace=wrap;connectable=0;strokeColor=inherit;overflow=hidden;fillColor=none;top=0;left=0;bottom=0;right=0;pointerEvents=1;" parent="iPEnNcosg1Q9wk2W3M9G-90" vertex="1">
          <mxGeometry x="178" width="88" height="44" as="geometry">
            <mxRectangle width="88" height="44" as="alternateBounds" />
          </mxGeometry>
        </mxCell>
        <mxCell id="iPEnNcosg1Q9wk2W3M9G-94" value="水" style="shape=partialRectangle;html=1;whiteSpace=wrap;connectable=0;strokeColor=inherit;overflow=hidden;fillColor=none;top=0;left=0;bottom=0;right=0;pointerEvents=1;" parent="iPEnNcosg1Q9wk2W3M9G-90" vertex="1">
          <mxGeometry x="266" width="88" height="44" as="geometry">
            <mxRectangle width="88" height="44" as="alternateBounds" />
          </mxGeometry>
        </mxCell>
        <mxCell id="iPEnNcosg1Q9wk2W3M9G-95" value="木" style="shape=partialRectangle;html=1;whiteSpace=wrap;connectable=0;strokeColor=inherit;overflow=hidden;fillColor=none;top=0;left=0;bottom=0;right=0;pointerEvents=1;" parent="iPEnNcosg1Q9wk2W3M9G-90" vertex="1">
          <mxGeometry x="354" width="88" height="44" as="geometry">
            <mxRectangle width="88" height="44" as="alternateBounds" />
          </mxGeometry>
        </mxCell>
        <mxCell id="iPEnNcosg1Q9wk2W3M9G-96" value="金" style="shape=partialRectangle;html=1;whiteSpace=wrap;connectable=0;strokeColor=inherit;overflow=hidden;fillColor=none;top=0;left=0;bottom=0;right=0;pointerEvents=1;" parent="iPEnNcosg1Q9wk2W3M9G-90" vertex="1">
          <mxGeometry x="442" width="90" height="44" as="geometry">
            <mxRectangle width="90" height="44" as="alternateBounds" />
          </mxGeometry>
        </mxCell>
        <mxCell id="iPEnNcosg1Q9wk2W3M9G-97" value="土" style="shape=partialRectangle;html=1;whiteSpace=wrap;connectable=0;strokeColor=inherit;overflow=hidden;fillColor=none;top=0;left=0;bottom=0;right=0;pointerEvents=1;" parent="iPEnNcosg1Q9wk2W3M9G-90" vertex="1">
          <mxGeometry x="532" width="88" height="44" as="geometry">
            <mxRectangle width="88" height="44" as="alternateBounds" />
          </mxGeometry>
        </mxCell>
        <mxCell id="iPEnNcosg1Q9wk2W3M9G-49" value="" style="shape=tableRow;horizontal=0;startSize=0;swimlaneHead=0;swimlaneBody=0;strokeColor=inherit;top=0;left=0;bottom=0;right=0;collapsible=0;dropTarget=0;fillColor=none;points=[[0,0.5],[1,0.5]];portConstraint=eastwest;" parent="iPEnNcosg1Q9wk2W3M9G-48" vertex="1">
          <mxGeometry y="44" width="620" height="63" as="geometry" />
        </mxCell>
        <mxCell id="iPEnNcosg1Q9wk2W3M9G-50" value="" style="shape=partialRectangle;html=1;whiteSpace=wrap;connectable=0;strokeColor=inherit;overflow=hidden;fillColor=none;top=0;left=0;bottom=0;right=0;pointerEvents=1;" parent="iPEnNcosg1Q9wk2W3M9G-49" vertex="1">
          <mxGeometry width="88" height="63" as="geometry">
            <mxRectangle width="88" height="63" as="alternateBounds" />
          </mxGeometry>
        </mxCell>
        <mxCell id="iPEnNcosg1Q9wk2W3M9G-51" value="" style="shape=partialRectangle;html=1;whiteSpace=wrap;connectable=0;strokeColor=inherit;overflow=hidden;fillColor=none;top=0;left=0;bottom=0;right=0;pointerEvents=1;" parent="iPEnNcosg1Q9wk2W3M9G-49" vertex="1">
          <mxGeometry x="88" width="90" height="63" as="geometry">
            <mxRectangle width="90" height="63" as="alternateBounds" />
          </mxGeometry>
        </mxCell>
        <mxCell id="iPEnNcosg1Q9wk2W3M9G-52" value="" style="shape=partialRectangle;html=1;whiteSpace=wrap;connectable=0;strokeColor=inherit;overflow=hidden;fillColor=none;top=0;left=0;bottom=0;right=0;pointerEvents=1;" parent="iPEnNcosg1Q9wk2W3M9G-49" vertex="1">
          <mxGeometry x="178" width="88" height="63" as="geometry">
            <mxRectangle width="88" height="63" as="alternateBounds" />
          </mxGeometry>
        </mxCell>
        <mxCell id="iPEnNcosg1Q9wk2W3M9G-53" value="" style="shape=partialRectangle;html=1;whiteSpace=wrap;connectable=0;strokeColor=inherit;overflow=hidden;fillColor=none;top=0;left=0;bottom=0;right=0;pointerEvents=1;" parent="iPEnNcosg1Q9wk2W3M9G-49" vertex="1">
          <mxGeometry x="266" width="88" height="63" as="geometry">
            <mxRectangle width="88" height="63" as="alternateBounds" />
          </mxGeometry>
        </mxCell>
        <mxCell id="iPEnNcosg1Q9wk2W3M9G-54" value="" style="shape=partialRectangle;html=1;whiteSpace=wrap;connectable=0;strokeColor=inherit;overflow=hidden;fillColor=none;top=0;left=0;bottom=0;right=0;pointerEvents=1;" parent="iPEnNcosg1Q9wk2W3M9G-49" vertex="1">
          <mxGeometry x="354" width="88" height="63" as="geometry">
            <mxRectangle width="88" height="63" as="alternateBounds" />
          </mxGeometry>
        </mxCell>
        <mxCell id="iPEnNcosg1Q9wk2W3M9G-55" value="" style="shape=partialRectangle;html=1;whiteSpace=wrap;connectable=0;strokeColor=inherit;overflow=hidden;fillColor=none;top=0;left=0;bottom=0;right=0;pointerEvents=1;" parent="iPEnNcosg1Q9wk2W3M9G-49" vertex="1">
          <mxGeometry x="442" width="90" height="63" as="geometry">
            <mxRectangle width="90" height="63" as="alternateBounds" />
          </mxGeometry>
        </mxCell>
        <mxCell id="iPEnNcosg1Q9wk2W3M9G-56" value="" style="shape=partialRectangle;html=1;whiteSpace=wrap;connectable=0;strokeColor=inherit;overflow=hidden;fillColor=none;top=0;left=0;bottom=0;right=0;pointerEvents=1;" parent="iPEnNcosg1Q9wk2W3M9G-49" vertex="1">
          <mxGeometry x="532" width="88" height="63" as="geometry">
            <mxRectangle width="88" height="63" as="alternateBounds" />
          </mxGeometry>
        </mxCell>
        <mxCell id="iPEnNcosg1Q9wk2W3M9G-57" value="" style="shape=tableRow;horizontal=0;startSize=0;swimlaneHead=0;swimlaneBody=0;strokeColor=inherit;top=0;left=0;bottom=0;right=0;collapsible=0;dropTarget=0;fillColor=none;points=[[0,0.5],[1,0.5]];portConstraint=eastwest;" parent="iPEnNcosg1Q9wk2W3M9G-48" vertex="1">
          <mxGeometry y="107" width="620" height="64" as="geometry" />
        </mxCell>
        <mxCell id="iPEnNcosg1Q9wk2W3M9G-58" value="" style="shape=partialRectangle;html=1;whiteSpace=wrap;connectable=0;strokeColor=inherit;overflow=hidden;fillColor=none;top=0;left=0;bottom=0;right=0;pointerEvents=1;" parent="iPEnNcosg1Q9wk2W3M9G-57" vertex="1">
          <mxGeometry width="88" height="64" as="geometry">
            <mxRectangle width="88" height="64" as="alternateBounds" />
          </mxGeometry>
        </mxCell>
        <mxCell id="iPEnNcosg1Q9wk2W3M9G-59" value="" style="shape=partialRectangle;html=1;whiteSpace=wrap;connectable=0;strokeColor=inherit;overflow=hidden;fillColor=none;top=0;left=0;bottom=0;right=0;pointerEvents=1;" parent="iPEnNcosg1Q9wk2W3M9G-57" vertex="1">
          <mxGeometry x="88" width="90" height="64" as="geometry">
            <mxRectangle width="90" height="64" as="alternateBounds" />
          </mxGeometry>
        </mxCell>
        <mxCell id="iPEnNcosg1Q9wk2W3M9G-60" value="" style="shape=partialRectangle;html=1;whiteSpace=wrap;connectable=0;strokeColor=inherit;overflow=hidden;fillColor=none;top=0;left=0;bottom=0;right=0;pointerEvents=1;" parent="iPEnNcosg1Q9wk2W3M9G-57" vertex="1">
          <mxGeometry x="178" width="88" height="64" as="geometry">
            <mxRectangle width="88" height="64" as="alternateBounds" />
          </mxGeometry>
        </mxCell>
        <mxCell id="iPEnNcosg1Q9wk2W3M9G-61" value="" style="shape=partialRectangle;html=1;whiteSpace=wrap;connectable=0;strokeColor=inherit;overflow=hidden;fillColor=none;top=0;left=0;bottom=0;right=0;pointerEvents=1;" parent="iPEnNcosg1Q9wk2W3M9G-57" vertex="1">
          <mxGeometry x="266" width="88" height="64" as="geometry">
            <mxRectangle width="88" height="64" as="alternateBounds" />
          </mxGeometry>
        </mxCell>
        <mxCell id="iPEnNcosg1Q9wk2W3M9G-62" value="" style="shape=partialRectangle;html=1;whiteSpace=wrap;connectable=0;strokeColor=inherit;overflow=hidden;fillColor=none;top=0;left=0;bottom=0;right=0;pointerEvents=1;" parent="iPEnNcosg1Q9wk2W3M9G-57" vertex="1">
          <mxGeometry x="354" width="88" height="64" as="geometry">
            <mxRectangle width="88" height="64" as="alternateBounds" />
          </mxGeometry>
        </mxCell>
        <mxCell id="iPEnNcosg1Q9wk2W3M9G-63" value="" style="shape=partialRectangle;html=1;whiteSpace=wrap;connectable=0;strokeColor=inherit;overflow=hidden;fillColor=none;top=0;left=0;bottom=0;right=0;pointerEvents=1;" parent="iPEnNcosg1Q9wk2W3M9G-57" vertex="1">
          <mxGeometry x="442" width="90" height="64" as="geometry">
            <mxRectangle width="90" height="64" as="alternateBounds" />
          </mxGeometry>
        </mxCell>
        <mxCell id="iPEnNcosg1Q9wk2W3M9G-64" value="" style="shape=partialRectangle;html=1;whiteSpace=wrap;connectable=0;strokeColor=inherit;overflow=hidden;fillColor=none;top=0;left=0;bottom=0;right=0;pointerEvents=1;" parent="iPEnNcosg1Q9wk2W3M9G-57" vertex="1">
          <mxGeometry x="532" width="88" height="64" as="geometry">
            <mxRectangle width="88" height="64" as="alternateBounds" />
          </mxGeometry>
        </mxCell>
        <mxCell id="iPEnNcosg1Q9wk2W3M9G-65" value="" style="shape=tableRow;horizontal=0;startSize=0;swimlaneHead=0;swimlaneBody=0;strokeColor=inherit;top=0;left=0;bottom=0;right=0;collapsible=0;dropTarget=0;fillColor=none;points=[[0,0.5],[1,0.5]];portConstraint=eastwest;" parent="iPEnNcosg1Q9wk2W3M9G-48" vertex="1">
          <mxGeometry y="171" width="620" height="63" as="geometry" />
        </mxCell>
        <mxCell id="iPEnNcosg1Q9wk2W3M9G-66" value="" style="shape=partialRectangle;html=1;whiteSpace=wrap;connectable=0;strokeColor=inherit;overflow=hidden;fillColor=none;top=0;left=0;bottom=0;right=0;pointerEvents=1;" parent="iPEnNcosg1Q9wk2W3M9G-65" vertex="1">
          <mxGeometry width="88" height="63" as="geometry">
            <mxRectangle width="88" height="63" as="alternateBounds" />
          </mxGeometry>
        </mxCell>
        <mxCell id="iPEnNcosg1Q9wk2W3M9G-67" value="" style="shape=partialRectangle;html=1;whiteSpace=wrap;connectable=0;strokeColor=inherit;overflow=hidden;fillColor=none;top=0;left=0;bottom=0;right=0;pointerEvents=1;" parent="iPEnNcosg1Q9wk2W3M9G-65" vertex="1">
          <mxGeometry x="88" width="90" height="63" as="geometry">
            <mxRectangle width="90" height="63" as="alternateBounds" />
          </mxGeometry>
        </mxCell>
        <mxCell id="iPEnNcosg1Q9wk2W3M9G-68" value="" style="shape=partialRectangle;html=1;whiteSpace=wrap;connectable=0;strokeColor=inherit;overflow=hidden;fillColor=none;top=0;left=0;bottom=0;right=0;pointerEvents=1;" parent="iPEnNcosg1Q9wk2W3M9G-65" vertex="1">
          <mxGeometry x="178" width="88" height="63" as="geometry">
            <mxRectangle width="88" height="63" as="alternateBounds" />
          </mxGeometry>
        </mxCell>
        <mxCell id="iPEnNcosg1Q9wk2W3M9G-69" value="" style="shape=partialRectangle;html=1;whiteSpace=wrap;connectable=0;strokeColor=inherit;overflow=hidden;fillColor=none;top=0;left=0;bottom=0;right=0;pointerEvents=1;" parent="iPEnNcosg1Q9wk2W3M9G-65" vertex="1">
          <mxGeometry x="266" width="88" height="63" as="geometry">
            <mxRectangle width="88" height="63" as="alternateBounds" />
          </mxGeometry>
        </mxCell>
        <mxCell id="iPEnNcosg1Q9wk2W3M9G-70" value="" style="shape=partialRectangle;html=1;whiteSpace=wrap;connectable=0;strokeColor=inherit;overflow=hidden;fillColor=none;top=0;left=0;bottom=0;right=0;pointerEvents=1;" parent="iPEnNcosg1Q9wk2W3M9G-65" vertex="1">
          <mxGeometry x="354" width="88" height="63" as="geometry">
            <mxRectangle width="88" height="63" as="alternateBounds" />
          </mxGeometry>
        </mxCell>
        <mxCell id="iPEnNcosg1Q9wk2W3M9G-71" value="" style="shape=partialRectangle;html=1;whiteSpace=wrap;connectable=0;strokeColor=inherit;overflow=hidden;fillColor=none;top=0;left=0;bottom=0;right=0;pointerEvents=1;" parent="iPEnNcosg1Q9wk2W3M9G-65" vertex="1">
          <mxGeometry x="442" width="90" height="63" as="geometry">
            <mxRectangle width="90" height="63" as="alternateBounds" />
          </mxGeometry>
        </mxCell>
        <mxCell id="iPEnNcosg1Q9wk2W3M9G-72" value="" style="shape=partialRectangle;html=1;whiteSpace=wrap;connectable=0;strokeColor=inherit;overflow=hidden;fillColor=none;top=0;left=0;bottom=0;right=0;pointerEvents=1;" parent="iPEnNcosg1Q9wk2W3M9G-65" vertex="1">
          <mxGeometry x="532" width="88" height="63" as="geometry">
            <mxRectangle width="88" height="63" as="alternateBounds" />
          </mxGeometry>
        </mxCell>
        <mxCell id="iPEnNcosg1Q9wk2W3M9G-73" value="" style="shape=tableRow;horizontal=0;startSize=0;swimlaneHead=0;swimlaneBody=0;strokeColor=inherit;top=0;left=0;bottom=0;right=0;collapsible=0;dropTarget=0;fillColor=none;points=[[0,0.5],[1,0.5]];portConstraint=eastwest;" parent="iPEnNcosg1Q9wk2W3M9G-48" vertex="1">
          <mxGeometry y="234" width="620" height="63" as="geometry" />
        </mxCell>
        <mxCell id="iPEnNcosg1Q9wk2W3M9G-74" value="" style="shape=partialRectangle;html=1;whiteSpace=wrap;connectable=0;strokeColor=inherit;overflow=hidden;fillColor=none;top=0;left=0;bottom=0;right=0;pointerEvents=1;" parent="iPEnNcosg1Q9wk2W3M9G-73" vertex="1">
          <mxGeometry width="88" height="63" as="geometry">
            <mxRectangle width="88" height="63" as="alternateBounds" />
          </mxGeometry>
        </mxCell>
        <mxCell id="iPEnNcosg1Q9wk2W3M9G-75" value="" style="shape=partialRectangle;html=1;whiteSpace=wrap;connectable=0;strokeColor=inherit;overflow=hidden;fillColor=none;top=0;left=0;bottom=0;right=0;pointerEvents=1;" parent="iPEnNcosg1Q9wk2W3M9G-73" vertex="1">
          <mxGeometry x="88" width="90" height="63" as="geometry">
            <mxRectangle width="90" height="63" as="alternateBounds" />
          </mxGeometry>
        </mxCell>
        <mxCell id="iPEnNcosg1Q9wk2W3M9G-76" value="" style="shape=partialRectangle;html=1;whiteSpace=wrap;connectable=0;strokeColor=inherit;overflow=hidden;fillColor=none;top=0;left=0;bottom=0;right=0;pointerEvents=1;" parent="iPEnNcosg1Q9wk2W3M9G-73" vertex="1">
          <mxGeometry x="178" width="88" height="63" as="geometry">
            <mxRectangle width="88" height="63" as="alternateBounds" />
          </mxGeometry>
        </mxCell>
        <mxCell id="iPEnNcosg1Q9wk2W3M9G-77" value="" style="shape=partialRectangle;html=1;whiteSpace=wrap;connectable=0;strokeColor=inherit;overflow=hidden;fillColor=none;top=0;left=0;bottom=0;right=0;pointerEvents=1;" parent="iPEnNcosg1Q9wk2W3M9G-73" vertex="1">
          <mxGeometry x="266" width="88" height="63" as="geometry">
            <mxRectangle width="88" height="63" as="alternateBounds" />
          </mxGeometry>
        </mxCell>
        <mxCell id="iPEnNcosg1Q9wk2W3M9G-78" value="" style="shape=partialRectangle;html=1;whiteSpace=wrap;connectable=0;strokeColor=inherit;overflow=hidden;fillColor=none;top=0;left=0;bottom=0;right=0;pointerEvents=1;" parent="iPEnNcosg1Q9wk2W3M9G-73" vertex="1">
          <mxGeometry x="354" width="88" height="63" as="geometry">
            <mxRectangle width="88" height="63" as="alternateBounds" />
          </mxGeometry>
        </mxCell>
        <mxCell id="iPEnNcosg1Q9wk2W3M9G-79" value="" style="shape=partialRectangle;html=1;whiteSpace=wrap;connectable=0;strokeColor=inherit;overflow=hidden;fillColor=none;top=0;left=0;bottom=0;right=0;pointerEvents=1;" parent="iPEnNcosg1Q9wk2W3M9G-73" vertex="1">
          <mxGeometry x="442" width="90" height="63" as="geometry">
            <mxRectangle width="90" height="63" as="alternateBounds" />
          </mxGeometry>
        </mxCell>
        <mxCell id="iPEnNcosg1Q9wk2W3M9G-80" value="" style="shape=partialRectangle;html=1;whiteSpace=wrap;connectable=0;strokeColor=inherit;overflow=hidden;fillColor=none;top=0;left=0;bottom=0;right=0;pointerEvents=1;" parent="iPEnNcosg1Q9wk2W3M9G-73" vertex="1">
          <mxGeometry x="532" width="88" height="63" as="geometry">
            <mxRectangle width="88" height="63" as="alternateBounds" />
          </mxGeometry>
        </mxCell>
        <mxCell id="iPEnNcosg1Q9wk2W3M9G-81" value="" style="shape=tableRow;horizontal=0;startSize=0;swimlaneHead=0;swimlaneBody=0;strokeColor=inherit;top=0;left=0;bottom=0;right=0;collapsible=0;dropTarget=0;fillColor=none;points=[[0,0.5],[1,0.5]];portConstraint=eastwest;" parent="iPEnNcosg1Q9wk2W3M9G-48" vertex="1">
          <mxGeometry y="297" width="620" height="63" as="geometry" />
        </mxCell>
        <mxCell id="iPEnNcosg1Q9wk2W3M9G-82" value="" style="shape=partialRectangle;html=1;whiteSpace=wrap;connectable=0;strokeColor=inherit;overflow=hidden;fillColor=none;top=0;left=0;bottom=0;right=0;pointerEvents=1;" parent="iPEnNcosg1Q9wk2W3M9G-81" vertex="1">
          <mxGeometry width="88" height="63" as="geometry">
            <mxRectangle width="88" height="63" as="alternateBounds" />
          </mxGeometry>
        </mxCell>
        <mxCell id="iPEnNcosg1Q9wk2W3M9G-83" value="" style="shape=partialRectangle;html=1;whiteSpace=wrap;connectable=0;strokeColor=inherit;overflow=hidden;fillColor=none;top=0;left=0;bottom=0;right=0;pointerEvents=1;" parent="iPEnNcosg1Q9wk2W3M9G-81" vertex="1">
          <mxGeometry x="88" width="90" height="63" as="geometry">
            <mxRectangle width="90" height="63" as="alternateBounds" />
          </mxGeometry>
        </mxCell>
        <mxCell id="iPEnNcosg1Q9wk2W3M9G-84" value="" style="shape=partialRectangle;html=1;whiteSpace=wrap;connectable=0;strokeColor=inherit;overflow=hidden;fillColor=none;top=0;left=0;bottom=0;right=0;pointerEvents=1;" parent="iPEnNcosg1Q9wk2W3M9G-81" vertex="1">
          <mxGeometry x="178" width="88" height="63" as="geometry">
            <mxRectangle width="88" height="63" as="alternateBounds" />
          </mxGeometry>
        </mxCell>
        <mxCell id="iPEnNcosg1Q9wk2W3M9G-85" value="" style="shape=partialRectangle;html=1;whiteSpace=wrap;connectable=0;strokeColor=inherit;overflow=hidden;fillColor=none;top=0;left=0;bottom=0;right=0;pointerEvents=1;" parent="iPEnNcosg1Q9wk2W3M9G-81" vertex="1">
          <mxGeometry x="266" width="88" height="63" as="geometry">
            <mxRectangle width="88" height="63" as="alternateBounds" />
          </mxGeometry>
        </mxCell>
        <mxCell id="iPEnNcosg1Q9wk2W3M9G-86" value="" style="shape=partialRectangle;html=1;whiteSpace=wrap;connectable=0;strokeColor=inherit;overflow=hidden;fillColor=none;top=0;left=0;bottom=0;right=0;pointerEvents=1;" parent="iPEnNcosg1Q9wk2W3M9G-81" vertex="1">
          <mxGeometry x="354" width="88" height="63" as="geometry">
            <mxRectangle width="88" height="63" as="alternateBounds" />
          </mxGeometry>
        </mxCell>
        <mxCell id="iPEnNcosg1Q9wk2W3M9G-87" value="" style="shape=partialRectangle;html=1;whiteSpace=wrap;connectable=0;strokeColor=inherit;overflow=hidden;fillColor=none;top=0;left=0;bottom=0;right=0;pointerEvents=1;" parent="iPEnNcosg1Q9wk2W3M9G-81" vertex="1">
          <mxGeometry x="442" width="90" height="63" as="geometry">
            <mxRectangle width="90" height="63" as="alternateBounds" />
          </mxGeometry>
        </mxCell>
        <mxCell id="iPEnNcosg1Q9wk2W3M9G-88" value="" style="shape=partialRectangle;html=1;whiteSpace=wrap;connectable=0;strokeColor=inherit;overflow=hidden;fillColor=none;top=0;left=0;bottom=0;right=0;pointerEvents=1;" parent="iPEnNcosg1Q9wk2W3M9G-81" vertex="1">
          <mxGeometry x="532" width="88" height="63" as="geometry">
            <mxRectangle width="88" height="63" as="alternateBounds" />
          </mxGeometry>
        </mxCell>
        <mxCell id="iPEnNcosg1Q9wk2W3M9G-158" value="" style="whiteSpace=wrap;html=1;rounded=0;shadow=0;strokeWidth=1;fontSize=14" parent="1" vertex="1">
          <mxGeometry x="1260" y="1930" width="60" height="50" as="geometry" />
        </mxCell>
        <mxCell id="iPEnNcosg1Q9wk2W3M9G-159" value="Relation 8" style="whiteSpace=wrap;html=1;rounded=0;shadow=0;strokeWidth=1;fontSize=14" parent="1" vertex="1">
          <mxGeometry x="1320" y="1930" width="210" height="50" as="geometry" />
        </mxCell>
        <mxCell id="iPEnNcosg1Q9wk2W3M9G-160" value="" style="rhombus;whiteSpace=wrap;html=1;rounded=0;shadow=0;strokeWidth=3;fillColor=#000000;fontSize=14" parent="1" vertex="1">
          <mxGeometry x="1275" y="1940" width="30" height="30" as="geometry" />
        </mxCell>
        <mxCell id="iPEnNcosg1Q9wk2W3M9G-161" value="" style="whiteSpace=wrap;html=1;rounded=0;shadow=0;strokeWidth=1;fontSize=14" parent="1" vertex="1">
          <mxGeometry x="1260" y="1880" width="60" height="50" as="geometry" />
        </mxCell>
        <mxCell id="iPEnNcosg1Q9wk2W3M9G-162" value="Relation 7" style="whiteSpace=wrap;html=1;rounded=0;shadow=0;strokeWidth=1;fontSize=14" parent="1" vertex="1">
          <mxGeometry x="1320" y="1880" width="210" height="50" as="geometry" />
        </mxCell>
        <mxCell id="iPEnNcosg1Q9wk2W3M9G-163" value="" style="whiteSpace=wrap;html=1;rounded=0;shadow=0;strokeWidth=1;fontSize=14" parent="1" vertex="1">
          <mxGeometry x="1260" y="1830" width="60" height="50" as="geometry" />
        </mxCell>
        <mxCell id="iPEnNcosg1Q9wk2W3M9G-164" value="Relation 6" style="whiteSpace=wrap;html=1;rounded=0;shadow=0;strokeWidth=1;fontSize=14" parent="1" vertex="1">
          <mxGeometry x="1320" y="1830" width="210" height="50" as="geometry" />
        </mxCell>
        <mxCell id="iPEnNcosg1Q9wk2W3M9G-165" value="" style="whiteSpace=wrap;html=1;rounded=0;shadow=0;strokeWidth=1;fontSize=14" parent="1" vertex="1">
          <mxGeometry x="1260" y="1780" width="60" height="50" as="geometry" />
        </mxCell>
        <mxCell id="iPEnNcosg1Q9wk2W3M9G-166" value="Relation 5" style="whiteSpace=wrap;html=1;rounded=0;shadow=0;strokeWidth=1;fontSize=14" parent="1" vertex="1">
          <mxGeometry x="1320" y="1780" width="210" height="50" as="geometry" />
        </mxCell>
        <mxCell id="iPEnNcosg1Q9wk2W3M9G-167" value="" style="whiteSpace=wrap;html=1;rounded=0;shadow=0;strokeWidth=1;fontSize=14" parent="1" vertex="1">
          <mxGeometry x="1260" y="1730" width="60" height="50" as="geometry" />
        </mxCell>
        <mxCell id="iPEnNcosg1Q9wk2W3M9G-168" value="Relation 4" style="whiteSpace=wrap;html=1;rounded=0;shadow=0;strokeWidth=1;fontSize=14" parent="1" vertex="1">
          <mxGeometry x="1320" y="1730" width="210" height="50" as="geometry" />
        </mxCell>
        <mxCell id="iPEnNcosg1Q9wk2W3M9G-169" value="" style="whiteSpace=wrap;html=1;rounded=0;shadow=0;strokeWidth=1;fontSize=14" parent="1" vertex="1">
          <mxGeometry x="1260" y="1680" width="60" height="50" as="geometry" />
        </mxCell>
        <mxCell id="iPEnNcosg1Q9wk2W3M9G-170" value="Relation 3" style="whiteSpace=wrap;html=1;rounded=0;shadow=0;strokeWidth=1;fontSize=14" parent="1" vertex="1">
          <mxGeometry x="1320" y="1680" width="210" height="50" as="geometry" />
        </mxCell>
        <mxCell id="iPEnNcosg1Q9wk2W3M9G-171" value="" style="whiteSpace=wrap;html=1;rounded=0;shadow=0;strokeWidth=1;fontSize=14" parent="1" vertex="1">
          <mxGeometry x="1260" y="1630" width="60" height="50" as="geometry" />
        </mxCell>
        <mxCell id="iPEnNcosg1Q9wk2W3M9G-172" value="Relation 2" style="whiteSpace=wrap;html=1;rounded=0;shadow=0;strokeWidth=1;fontSize=14" parent="1" vertex="1">
          <mxGeometry x="1320" y="1630" width="210" height="50" as="geometry" />
        </mxCell>
        <mxCell id="iPEnNcosg1Q9wk2W3M9G-173" value="" style="whiteSpace=wrap;html=1;rounded=0;shadow=0;strokeWidth=1;fontSize=14" parent="1" vertex="1">
          <mxGeometry x="1260" y="1580" width="60" height="50" as="geometry" />
        </mxCell>
        <mxCell id="iPEnNcosg1Q9wk2W3M9G-174" value="Relation 1" style="whiteSpace=wrap;html=1;rounded=0;shadow=0;strokeWidth=1;fontSize=14" parent="1" vertex="1">
          <mxGeometry x="1320" y="1580" width="210" height="50" as="geometry" />
        </mxCell>
        <mxCell id="iPEnNcosg1Q9wk2W3M9G-175" value="&lt;table border=&quot;1&quot; width=&quot;100%&quot; cellpadding=&quot;4&quot; style=&quot;width: 100% ; height: 100% ; border-collapse: collapse&quot;&gt;&lt;tbody&gt;&lt;tr style=&quot;background-color: #a7c942 ; color: #ffffff ; border: 1px solid #98bf21&quot;&gt;&lt;th&gt;Tasks&lt;/th&gt;&lt;th&gt;Position 1&lt;/th&gt;&lt;th&gt;Position 2&lt;/th&gt;&lt;th&gt;Position 3&lt;/th&gt;&lt;th&gt;Position 4&lt;/th&gt;&lt;th&gt;Position 5&lt;/th&gt;&lt;/tr&gt;&lt;tr style=&quot;border: 1px solid #98bf21&quot;&gt;&lt;td style=&quot;background-color: #a7c942 ; color: #ffffff ; border: 1px solid #98bf21&quot;&gt;Task 1&lt;/td&gt;&lt;td&gt;&lt;/td&gt;&lt;td&gt;&lt;/td&gt;&lt;td&gt;&lt;br&gt;&lt;/td&gt;&lt;td&gt;&lt;br&gt;&lt;/td&gt;&lt;td&gt;&lt;br&gt;&lt;/td&gt;&lt;/tr&gt;&lt;tr style=&quot;background-color: #eaf2d3 ; border: 1px solid #98bf21&quot;&gt;&lt;td style=&quot;background-color: #a7c942 ; color: #ffffff ; border: 1px solid #98bf21&quot;&gt;Task 2&lt;/td&gt;&lt;td&gt;&lt;/td&gt;&lt;td&gt;&lt;/td&gt;&lt;td&gt;&lt;br&gt;&lt;/td&gt;&lt;td&gt;&lt;br&gt;&lt;/td&gt;&lt;td&gt;&lt;br&gt;&lt;/td&gt;&lt;/tr&gt;&lt;tr style=&quot;border: 1px solid #98bf21&quot;&gt;&lt;td style=&quot;background-color: #a7c942 ; color: #ffffff ; border: 1px solid #98bf21&quot;&gt;Task 3&lt;/td&gt;&lt;td&gt;&lt;/td&gt;&lt;td&gt;&lt;/td&gt;&lt;td&gt;&lt;br&gt;&lt;/td&gt;&lt;td&gt;&lt;br&gt;&lt;/td&gt;&lt;td&gt;&lt;br&gt;&lt;/td&gt;&lt;/tr&gt;&lt;tr style=&quot;background-color: #eaf2d3 ; border: 1px solid #98bf21&quot;&gt;&lt;td style=&quot;background-color: #a7c942 ; color: #ffffff ; border: 1px solid #98bf21&quot;&gt;Task 4&lt;/td&gt;&lt;td&gt;&lt;/td&gt;&lt;td&gt;&lt;/td&gt;&lt;td&gt;&lt;br&gt;&lt;/td&gt;&lt;td&gt;&lt;br&gt;&lt;/td&gt;&lt;td&gt;&lt;br&gt;&lt;/td&gt;&lt;/tr&gt;&lt;tr style=&quot;border: 1px solid #98bf21&quot;&gt;&lt;td style=&quot;background-color: #a7c942 ; color: #ffffff ; border: 1px solid #98bf21&quot;&gt;Task 5&lt;br&gt;&lt;/td&gt;&lt;td&gt;&lt;br&gt;&lt;/td&gt;&lt;td&gt;&lt;br&gt;&lt;/td&gt;&lt;td&gt;&lt;br&gt;&lt;/td&gt;&lt;td&gt;&lt;br&gt;&lt;/td&gt;&lt;td&gt;&lt;br&gt;&lt;/td&gt;&lt;/tr&gt;&lt;tr style=&quot;background-color: #eaf2d3 ; border: 1px solid #98bf21&quot;&gt;&lt;td style=&quot;background-color: #a7c942 ; color: #ffffff ; border: 1px solid #98bf21&quot;&gt;Task 6&lt;br&gt;&lt;/td&gt;&lt;td&gt;&lt;br&gt;&lt;/td&gt;&lt;td&gt;&lt;br&gt;&lt;/td&gt;&lt;td&gt;&lt;br&gt;&lt;/td&gt;&lt;td&gt;&lt;br&gt;&lt;/td&gt;&lt;td&gt;&lt;br&gt;&lt;/td&gt;&lt;/tr&gt;&lt;tr style=&quot;border: 1px solid #98bf21&quot;&gt;&lt;td style=&quot;background-color: #a7c942 ; color: #ffffff ; border: 1px solid #98bf21&quot;&gt;Task 7&lt;br&gt;&lt;/td&gt;&lt;td&gt;&lt;br&gt;&lt;/td&gt;&lt;td&gt;&lt;br&gt;&lt;/td&gt;&lt;td&gt;&lt;br&gt;&lt;/td&gt;&lt;td&gt;&lt;br&gt;&lt;/td&gt;&lt;td&gt;&lt;br&gt;&lt;/td&gt;&lt;/tr&gt;&lt;tr style=&quot;background-color: #eaf2d3 ; border: 1px solid #98bf21&quot;&gt;&lt;td style=&quot;background-color: #a7c942 ; color: #ffffff ; border: 1px solid #98bf21&quot;&gt;Task 8&lt;br&gt;&lt;/td&gt;&lt;td&gt;&lt;br&gt;&lt;/td&gt;&lt;td&gt;&lt;br&gt;&lt;/td&gt;&lt;td&gt;&lt;br&gt;&lt;/td&gt;&lt;td&gt;&lt;br&gt;&lt;/td&gt;&lt;td&gt;&lt;br&gt;&lt;/td&gt;&lt;/tr&gt;&lt;tr style=&quot;border: 1px solid #98bf21&quot;&gt;&lt;td style=&quot;background-color: #a7c942 ; color: #ffffff ; border: 1px solid #98bf21&quot;&gt;Task 9&lt;br&gt;&lt;/td&gt;&lt;td&gt;&lt;br&gt;&lt;/td&gt;&lt;td&gt;&lt;br&gt;&lt;/td&gt;&lt;td&gt;&lt;br&gt;&lt;/td&gt;&lt;td&gt;&lt;br&gt;&lt;/td&gt;&lt;td&gt;&lt;br&gt;&lt;/td&gt;&lt;/tr&gt;&lt;tr style=&quot;background-color: #eaf2d3 ; border: 1px solid #98bf21&quot;&gt;&lt;td style=&quot;background-color: #a7c942 ; color: #ffffff ; border: 1px solid #98bf21&quot;&gt;Task 10&lt;br&gt;&lt;/td&gt;&lt;td&gt;&lt;br&gt;&lt;/td&gt;&lt;td&gt;&lt;br&gt;&lt;/td&gt;&lt;td&gt;&lt;br&gt;&lt;/td&gt;&lt;td&gt;&lt;br&gt;&lt;/td&gt;&lt;td&gt;&lt;br&gt;&lt;/td&gt;&lt;/tr&gt;&lt;/tbody&gt;&lt;/table&gt;" style="text;html=1;strokeColor=#c0c0c0;fillColor=#ffffff;overflow=fill;rounded=0;shadow=1;fontSize=14;fontColor=#000000;" parent="1" vertex="1">
          <mxGeometry x="20" y="950" width="1090" height="660" as="geometry" />
        </mxCell>
        <mxCell id="iPEnNcosg1Q9wk2W3M9G-176" value="Title" style="text;strokeColor=none;fillColor=none;html=1;fontSize=24;fontStyle=1;verticalAlign=middle;align=center;rounded=0;shadow=1;" parent="1" vertex="1">
          <mxGeometry x="160" y="860" width="780" height="40" as="geometry" />
        </mxCell>
        <mxCell id="iPEnNcosg1Q9wk2W3M9G-177" value="" style="ellipse;whiteSpace=wrap;html=1;rounded=0;shadow=0;strokeWidth=3;fontSize=14" parent="1" vertex="1">
          <mxGeometry x="1275" y="1590" width="30" height="30" as="geometry" />
        </mxCell>
        <mxCell id="iPEnNcosg1Q9wk2W3M9G-178" value="" style="ellipse;whiteSpace=wrap;html=1;rounded=0;shadow=0;strokeWidth=3;fontSize=14;fillColor=#000000;" parent="1" vertex="1">
          <mxGeometry x="1275" y="1640" width="30" height="30" as="geometry" />
        </mxCell>
        <mxCell id="iPEnNcosg1Q9wk2W3M9G-179" value="" style="triangle;whiteSpace=wrap;html=1;rounded=0;shadow=0;strokeWidth=3;fillColor=#000000;fontSize=14;direction=north;" parent="1" vertex="1">
          <mxGeometry x="1275" y="1740" width="30" height="30" as="geometry" />
        </mxCell>
        <mxCell id="iPEnNcosg1Q9wk2W3M9G-180" value="" style="triangle;whiteSpace=wrap;html=1;rounded=0;shadow=0;strokeWidth=3;fontSize=14;direction=north;" parent="1" vertex="1">
          <mxGeometry x="1275" y="1690" width="30" height="30" as="geometry" />
        </mxCell>
        <mxCell id="iPEnNcosg1Q9wk2W3M9G-181" value="" style="whiteSpace=wrap;html=1;rounded=0;shadow=0;strokeWidth=3;fontSize=14" parent="1" vertex="1">
          <mxGeometry x="1275" y="1790" width="30" height="30" as="geometry" />
        </mxCell>
        <mxCell id="iPEnNcosg1Q9wk2W3M9G-182" value="" style="whiteSpace=wrap;html=1;rounded=0;shadow=0;strokeWidth=3;fillColor=#000000;fontSize=14" parent="1" vertex="1">
          <mxGeometry x="1275" y="1840" width="30" height="30" as="geometry" />
        </mxCell>
        <mxCell id="iPEnNcosg1Q9wk2W3M9G-183" value="" style="rhombus;whiteSpace=wrap;html=1;rounded=0;shadow=0;strokeWidth=3;fontSize=14" parent="1" vertex="1">
          <mxGeometry x="1275" y="1890" width="30" height="30" as="geometry" />
        </mxCell>
        <mxCell id="iPEnNcosg1Q9wk2W3M9G-184" value="" style="ellipse;whiteSpace=wrap;html=1;rounded=0;shadow=0;strokeWidth=3;fontSize=14" parent="1" vertex="1">
          <mxGeometry x="806" y="1385" width="30" height="30" as="geometry" />
        </mxCell>
        <mxCell id="iPEnNcosg1Q9wk2W3M9G-185" value="" style="ellipse;whiteSpace=wrap;html=1;rounded=0;shadow=0;strokeWidth=3;fontSize=14" parent="1" vertex="1">
          <mxGeometry x="430" y="1265" width="30" height="30" as="geometry" />
        </mxCell>
        <mxCell id="iPEnNcosg1Q9wk2W3M9G-186" value="" style="ellipse;whiteSpace=wrap;html=1;rounded=0;shadow=0;strokeWidth=3;fontSize=14;fillColor=#000000;" parent="1" vertex="1">
          <mxGeometry x="1000" y="1207" width="30" height="30" as="geometry" />
        </mxCell>
        <mxCell id="iPEnNcosg1Q9wk2W3M9G-187" value="" style="ellipse;whiteSpace=wrap;html=1;rounded=0;shadow=0;strokeWidth=3;fontSize=14;fillColor=#000000;" parent="1" vertex="1">
          <mxGeometry x="806" y="1445" width="30" height="30" as="geometry" />
        </mxCell>
        <mxCell id="iPEnNcosg1Q9wk2W3M9G-188" value="" style="triangle;whiteSpace=wrap;html=1;rounded=0;shadow=0;strokeWidth=3;fontSize=14;direction=north;" parent="1" vertex="1">
          <mxGeometry x="430" y="1565" width="30" height="30" as="geometry" />
        </mxCell>
        <mxCell id="iPEnNcosg1Q9wk2W3M9G-189" value="" style="triangle;whiteSpace=wrap;html=1;rounded=0;shadow=0;strokeWidth=3;fontSize=14;direction=north;" parent="1" vertex="1">
          <mxGeometry x="620" y="1145" width="30" height="30" as="geometry" />
        </mxCell>
        <mxCell id="iPEnNcosg1Q9wk2W3M9G-190" value="" style="triangle;whiteSpace=wrap;html=1;rounded=0;shadow=0;strokeWidth=3;fillColor=#000000;fontSize=14;direction=north;" parent="1" vertex="1">
          <mxGeometry x="998" y="1565" width="30" height="30" as="geometry" />
        </mxCell>
        <mxCell id="iPEnNcosg1Q9wk2W3M9G-191" value="" style="triangle;whiteSpace=wrap;html=1;rounded=0;shadow=0;strokeWidth=3;fillColor=#000000;fontSize=14;direction=north;" parent="1" vertex="1">
          <mxGeometry x="620" y="1560" width="30" height="30" as="geometry" />
        </mxCell>
        <mxCell id="iPEnNcosg1Q9wk2W3M9G-192" value="" style="triangle;whiteSpace=wrap;html=1;rounded=0;shadow=0;strokeWidth=3;fillColor=#000000;fontSize=14;direction=north;" parent="1" vertex="1">
          <mxGeometry x="240" y="1505" width="30" height="30" as="geometry" />
        </mxCell>
        <mxCell id="iPEnNcosg1Q9wk2W3M9G-193" value="" style="whiteSpace=wrap;html=1;rounded=0;shadow=0;strokeWidth=3;fontSize=14" parent="1" vertex="1">
          <mxGeometry x="240" y="1024" width="30" height="30" as="geometry" />
        </mxCell>
        <mxCell id="iPEnNcosg1Q9wk2W3M9G-194" value="" style="whiteSpace=wrap;html=1;rounded=0;shadow=0;strokeWidth=3;fontSize=14" parent="1" vertex="1">
          <mxGeometry x="430" y="1024" width="30" height="30" as="geometry" />
        </mxCell>
        <mxCell id="iPEnNcosg1Q9wk2W3M9G-195" value="" style="whiteSpace=wrap;html=1;rounded=0;shadow=0;strokeWidth=3;fontSize=14" parent="1" vertex="1">
          <mxGeometry x="806" y="1084" width="30" height="30" as="geometry" />
        </mxCell>
        <mxCell id="iPEnNcosg1Q9wk2W3M9G-196" value="" style="whiteSpace=wrap;html=1;rounded=0;shadow=0;strokeWidth=3;fillColor=#ffffff;fontSize=14" parent="1" vertex="1">
          <mxGeometry x="1000" y="1324" width="30" height="30" as="geometry" />
        </mxCell>
        <mxCell id="iPEnNcosg1Q9wk2W3M9G-197" value="" style="whiteSpace=wrap;html=1;rounded=0;shadow=0;strokeWidth=3;fillColor=#000000;fontSize=14" parent="1" vertex="1">
          <mxGeometry x="240" y="1385" width="30" height="30" as="geometry" />
        </mxCell>
        <mxCell id="iPEnNcosg1Q9wk2W3M9G-198" value="" style="whiteSpace=wrap;html=1;rounded=0;shadow=0;strokeWidth=3;fillColor=#000000;fontSize=14" parent="1" vertex="1">
          <mxGeometry x="806" y="1207" width="30" height="30" as="geometry" />
        </mxCell>
        <mxCell id="iPEnNcosg1Q9wk2W3M9G-199" value="" style="whiteSpace=wrap;html=1;rounded=0;shadow=0;strokeWidth=3;fillColor=#000000;fontSize=14" parent="1" vertex="1">
          <mxGeometry x="1000" y="1084" width="30" height="30" as="geometry" />
        </mxCell>
        <mxCell id="iPEnNcosg1Q9wk2W3M9G-200" value="" style="rhombus;whiteSpace=wrap;html=1;rounded=0;shadow=0;strokeWidth=3;fontSize=14" parent="1" vertex="1">
          <mxGeometry x="620" y="1324" width="30" height="30" as="geometry" />
        </mxCell>
        <mxCell id="iPEnNcosg1Q9wk2W3M9G-201" value="" style="rhombus;whiteSpace=wrap;html=1;rounded=0;shadow=0;strokeWidth=3;fontSize=14" parent="1" vertex="1">
          <mxGeometry x="240" y="1084" width="30" height="30" as="geometry" />
        </mxCell>
        <mxCell id="iPEnNcosg1Q9wk2W3M9G-202" value="" style="rhombus;whiteSpace=wrap;html=1;rounded=0;shadow=0;strokeWidth=3;fontSize=14" parent="1" vertex="1">
          <mxGeometry x="806" y="1505" width="30" height="30" as="geometry" />
        </mxCell>
        <mxCell id="iPEnNcosg1Q9wk2W3M9G-203" value="" style="rhombus;whiteSpace=wrap;html=1;rounded=0;shadow=0;strokeWidth=3;fillColor=#000000;fontSize=14" parent="1" vertex="1">
          <mxGeometry x="998" y="1445" width="30" height="30" as="geometry" />
        </mxCell>
        <mxCell id="iPEnNcosg1Q9wk2W3M9G-204" value="" style="rhombus;whiteSpace=wrap;html=1;rounded=0;shadow=0;strokeWidth=3;fillColor=#000000;fontSize=14" parent="1" vertex="1">
          <mxGeometry x="430" y="1145" width="30" height="30" as="geometry" />
        </mxCell>
        <mxCell id="iPEnNcosg1Q9wk2W3M9G-205" value="" style="rhombus;whiteSpace=wrap;html=1;rounded=0;shadow=0;strokeWidth=3;fillColor=#000000;fontSize=14" parent="1" vertex="1">
          <mxGeometry x="620" y="1024" width="30" height="30" as="geometry" />
        </mxCell>
        <mxCell id="iPEnNcosg1Q9wk2W3M9G-206" value="" style="rhombus;whiteSpace=wrap;html=1;rounded=0;shadow=0;strokeWidth=3;fillColor=#000000;fontSize=14" parent="1" vertex="1">
          <mxGeometry x="620" y="1505" width="30" height="30" as="geometry" />
        </mxCell>
        <mxCell id="iPEnNcosg1Q9wk2W3M9G-207" value="" style="line;strokeWidth=1;html=1;rounded=0;shadow=0;labelBackgroundColor=none;fillColor=none;fontFamily=Verdana;fontSize=14;fontColor=#000000;align=center;comic=1;" parent="1" vertex="1">
          <mxGeometry x="20" y="720" width="1060" height="70" as="geometry" />
        </mxCell>
        <mxCell id="iPEnNcosg1Q9wk2W3M9G-208" value="Copyright" style="text;html=1;strokeColor=none;fillColor=none;align=center;verticalAlign=middle;whiteSpace=wrap;rounded=0;" parent="1" vertex="1">
          <mxGeometry x="470" y="780" width="160" height="30" as="geometry" />
        </mxCell>
      </root>
    </mxGraphModel>
  </diagram>
  <diagram id="cYlXWly8icLZUPlv7_-2" name="ページ2">
    <mxGraphModel dx="1105" dy="705" grid="1" gridSize="10" guides="1" tooltips="1" connect="1" arrows="1" fold="1" page="1" pageScale="1" pageWidth="1100" pageHeight="850" math="0" shadow="0">
      <root>
        <mxCell id="0" />
        <mxCell id="1" parent="0" />
        <mxCell id="GIOwwDqGQlmNVpCghIwZ-1" value="ログイン画面" style="rounded=0;whiteSpace=wrap;html=1;" parent="1" vertex="1">
          <mxGeometry x="30" y="20" width="280" height="60" as="geometry" />
        </mxCell>
        <mxCell id="GIOwwDqGQlmNVpCghIwZ-2" value="" style="rounded=0;whiteSpace=wrap;html=1;fillColor=none;strokeWidth=0.5;" parent="1" vertex="1">
          <mxGeometry x="80" y="120" width="480" height="600" as="geometry" />
        </mxCell>
        <mxCell id="GIOwwDqGQlmNVpCghIwZ-3" value="＜画面イメージ＞" style="text;strokeColor=none;align=center;fillColor=none;html=1;verticalAlign=middle;whiteSpace=wrap;rounded=0;" parent="1" vertex="1">
          <mxGeometry x="50" y="90" width="120" height="30" as="geometry" />
        </mxCell>
        <mxCell id="n0A4wE0TodAf_xoFpRn0-1" value="" style="shape=table;startSize=0;container=1;collapsible=0;childLayout=tableLayout;rowLines=1;" parent="1" vertex="1">
          <mxGeometry x="100" y="800" width="1970" height="80" as="geometry" />
        </mxCell>
        <mxCell id="n0A4wE0TodAf_xoFpRn0-2" value="" style="shape=tableRow;horizontal=0;startSize=0;swimlaneHead=0;swimlaneBody=0;strokeColor=inherit;top=0;left=0;bottom=0;right=0;collapsible=0;dropTarget=0;fillColor=none;points=[[0,0.5],[1,0.5]];portConstraint=eastwest;" parent="n0A4wE0TodAf_xoFpRn0-1" vertex="1">
          <mxGeometry width="1970" height="20" as="geometry" />
        </mxCell>
        <mxCell id="n0A4wE0TodAf_xoFpRn0-3" value="No." style="shape=partialRectangle;html=1;whiteSpace=wrap;connectable=0;strokeColor=inherit;overflow=hidden;fillColor=none;top=0;left=0;bottom=0;right=0;pointerEvents=1;" parent="n0A4wE0TodAf_xoFpRn0-2" vertex="1">
          <mxGeometry width="50" height="20" as="geometry">
            <mxRectangle width="50" height="20" as="alternateBounds" />
          </mxGeometry>
        </mxCell>
        <mxCell id="n0A4wE0TodAf_xoFpRn0-4" value="エリア名" style="shape=partialRectangle;html=1;whiteSpace=wrap;connectable=0;strokeColor=inherit;overflow=hidden;fillColor=none;top=0;left=0;bottom=0;right=0;pointerEvents=1;" parent="n0A4wE0TodAf_xoFpRn0-2" vertex="1">
          <mxGeometry x="50" width="200" height="20" as="geometry">
            <mxRectangle width="200" height="20" as="alternateBounds" />
          </mxGeometry>
        </mxCell>
        <mxCell id="n0A4wE0TodAf_xoFpRn0-5" value="入力項目名" style="shape=partialRectangle;html=1;whiteSpace=wrap;connectable=0;strokeColor=inherit;overflow=hidden;fillColor=none;top=0;left=0;bottom=0;right=0;pointerEvents=1;" parent="n0A4wE0TodAf_xoFpRn0-2" vertex="1">
          <mxGeometry x="250" width="350" height="20" as="geometry">
            <mxRectangle width="350" height="20" as="alternateBounds" />
          </mxGeometry>
        </mxCell>
        <mxCell id="n0A4wE0TodAf_xoFpRn0-6" value="入力形式" style="shape=partialRectangle;html=1;whiteSpace=wrap;connectable=0;strokeColor=inherit;overflow=hidden;fillColor=none;top=0;left=0;bottom=0;right=0;pointerEvents=1;" parent="n0A4wE0TodAf_xoFpRn0-2" vertex="1">
          <mxGeometry x="600" width="150" height="20" as="geometry">
            <mxRectangle width="150" height="20" as="alternateBounds" />
          </mxGeometry>
        </mxCell>
        <mxCell id="n0A4wE0TodAf_xoFpRn0-7" value="桁数" style="shape=partialRectangle;html=1;whiteSpace=wrap;connectable=0;strokeColor=inherit;overflow=hidden;fillColor=none;top=0;left=0;bottom=0;right=0;pointerEvents=1;" parent="n0A4wE0TodAf_xoFpRn0-2" vertex="1">
          <mxGeometry x="750" width="60" height="20" as="geometry">
            <mxRectangle width="60" height="20" as="alternateBounds" />
          </mxGeometry>
        </mxCell>
        <mxCell id="n0A4wE0TodAf_xoFpRn0-8" value="必須" style="shape=partialRectangle;html=1;whiteSpace=wrap;connectable=0;strokeColor=inherit;overflow=hidden;fillColor=none;top=0;left=0;bottom=0;right=0;pointerEvents=1;" parent="n0A4wE0TodAf_xoFpRn0-2" vertex="1">
          <mxGeometry x="810" width="60" height="20" as="geometry">
            <mxRectangle width="60" height="20" as="alternateBounds" />
          </mxGeometry>
        </mxCell>
        <mxCell id="n0A4wE0TodAf_xoFpRn0-12" value="チェック内容" style="shape=partialRectangle;html=1;whiteSpace=wrap;connectable=0;strokeColor=inherit;overflow=hidden;fillColor=none;top=0;left=0;bottom=0;right=0;pointerEvents=1;" parent="n0A4wE0TodAf_xoFpRn0-2" vertex="1">
          <mxGeometry x="870" width="600" height="20" as="geometry">
            <mxRectangle width="600" height="20" as="alternateBounds" />
          </mxGeometry>
        </mxCell>
        <mxCell id="n0A4wE0TodAf_xoFpRn0-13" value="備考" style="shape=partialRectangle;html=1;whiteSpace=wrap;connectable=0;strokeColor=inherit;overflow=hidden;fillColor=none;top=0;left=0;bottom=0;right=0;pointerEvents=1;" parent="n0A4wE0TodAf_xoFpRn0-2" vertex="1">
          <mxGeometry x="1470" width="500" height="20" as="geometry">
            <mxRectangle width="500" height="20" as="alternateBounds" />
          </mxGeometry>
        </mxCell>
        <mxCell id="n0A4wE0TodAf_xoFpRn0-32" style="shape=tableRow;horizontal=0;startSize=0;swimlaneHead=0;swimlaneBody=0;strokeColor=inherit;top=0;left=0;bottom=0;right=0;collapsible=0;dropTarget=0;fillColor=none;points=[[0,0.5],[1,0.5]];portConstraint=eastwest;" parent="n0A4wE0TodAf_xoFpRn0-1" vertex="1">
          <mxGeometry y="20" width="1970" height="20" as="geometry" />
        </mxCell>
        <mxCell id="n0A4wE0TodAf_xoFpRn0-33" style="shape=partialRectangle;html=1;whiteSpace=wrap;connectable=0;strokeColor=inherit;overflow=hidden;fillColor=none;top=0;left=0;bottom=0;right=0;pointerEvents=1;" parent="n0A4wE0TodAf_xoFpRn0-32" vertex="1">
          <mxGeometry width="50" height="20" as="geometry">
            <mxRectangle width="50" height="20" as="alternateBounds" />
          </mxGeometry>
        </mxCell>
        <mxCell id="n0A4wE0TodAf_xoFpRn0-34" style="shape=partialRectangle;html=1;whiteSpace=wrap;connectable=0;strokeColor=inherit;overflow=hidden;fillColor=none;top=0;left=0;bottom=0;right=0;pointerEvents=1;" parent="n0A4wE0TodAf_xoFpRn0-32" vertex="1">
          <mxGeometry x="50" width="200" height="20" as="geometry">
            <mxRectangle width="200" height="20" as="alternateBounds" />
          </mxGeometry>
        </mxCell>
        <mxCell id="n0A4wE0TodAf_xoFpRn0-35" style="shape=partialRectangle;html=1;whiteSpace=wrap;connectable=0;strokeColor=inherit;overflow=hidden;fillColor=none;top=0;left=0;bottom=0;right=0;pointerEvents=1;" parent="n0A4wE0TodAf_xoFpRn0-32" vertex="1">
          <mxGeometry x="250" width="350" height="20" as="geometry">
            <mxRectangle width="350" height="20" as="alternateBounds" />
          </mxGeometry>
        </mxCell>
        <mxCell id="n0A4wE0TodAf_xoFpRn0-36" style="shape=partialRectangle;html=1;whiteSpace=wrap;connectable=0;strokeColor=inherit;overflow=hidden;fillColor=none;top=0;left=0;bottom=0;right=0;pointerEvents=1;" parent="n0A4wE0TodAf_xoFpRn0-32" vertex="1">
          <mxGeometry x="600" width="150" height="20" as="geometry">
            <mxRectangle width="150" height="20" as="alternateBounds" />
          </mxGeometry>
        </mxCell>
        <mxCell id="n0A4wE0TodAf_xoFpRn0-37" style="shape=partialRectangle;html=1;whiteSpace=wrap;connectable=0;strokeColor=inherit;overflow=hidden;fillColor=none;top=0;left=0;bottom=0;right=0;pointerEvents=1;" parent="n0A4wE0TodAf_xoFpRn0-32" vertex="1">
          <mxGeometry x="750" width="60" height="20" as="geometry">
            <mxRectangle width="60" height="20" as="alternateBounds" />
          </mxGeometry>
        </mxCell>
        <mxCell id="n0A4wE0TodAf_xoFpRn0-38" style="shape=partialRectangle;html=1;whiteSpace=wrap;connectable=0;strokeColor=inherit;overflow=hidden;fillColor=none;top=0;left=0;bottom=0;right=0;pointerEvents=1;" parent="n0A4wE0TodAf_xoFpRn0-32" vertex="1">
          <mxGeometry x="810" width="60" height="20" as="geometry">
            <mxRectangle width="60" height="20" as="alternateBounds" />
          </mxGeometry>
        </mxCell>
        <mxCell id="n0A4wE0TodAf_xoFpRn0-39" style="shape=partialRectangle;html=1;whiteSpace=wrap;connectable=0;strokeColor=inherit;overflow=hidden;fillColor=none;top=0;left=0;bottom=0;right=0;pointerEvents=1;" parent="n0A4wE0TodAf_xoFpRn0-32" vertex="1">
          <mxGeometry x="870" width="600" height="20" as="geometry">
            <mxRectangle width="600" height="20" as="alternateBounds" />
          </mxGeometry>
        </mxCell>
        <mxCell id="n0A4wE0TodAf_xoFpRn0-40" style="shape=partialRectangle;html=1;whiteSpace=wrap;connectable=0;strokeColor=inherit;overflow=hidden;fillColor=none;top=0;left=0;bottom=0;right=0;pointerEvents=1;" parent="n0A4wE0TodAf_xoFpRn0-32" vertex="1">
          <mxGeometry x="1470" width="500" height="20" as="geometry">
            <mxRectangle width="500" height="20" as="alternateBounds" />
          </mxGeometry>
        </mxCell>
        <mxCell id="n0A4wE0TodAf_xoFpRn0-23" style="shape=tableRow;horizontal=0;startSize=0;swimlaneHead=0;swimlaneBody=0;strokeColor=inherit;top=0;left=0;bottom=0;right=0;collapsible=0;dropTarget=0;fillColor=none;points=[[0,0.5],[1,0.5]];portConstraint=eastwest;" parent="n0A4wE0TodAf_xoFpRn0-1" vertex="1">
          <mxGeometry y="40" width="1970" height="20" as="geometry" />
        </mxCell>
        <mxCell id="n0A4wE0TodAf_xoFpRn0-24" style="shape=partialRectangle;html=1;whiteSpace=wrap;connectable=0;strokeColor=inherit;overflow=hidden;fillColor=none;top=0;left=0;bottom=0;right=0;pointerEvents=1;" parent="n0A4wE0TodAf_xoFpRn0-23" vertex="1">
          <mxGeometry width="50" height="20" as="geometry">
            <mxRectangle width="50" height="20" as="alternateBounds" />
          </mxGeometry>
        </mxCell>
        <mxCell id="n0A4wE0TodAf_xoFpRn0-25" style="shape=partialRectangle;html=1;whiteSpace=wrap;connectable=0;strokeColor=inherit;overflow=hidden;fillColor=none;top=0;left=0;bottom=0;right=0;pointerEvents=1;" parent="n0A4wE0TodAf_xoFpRn0-23" vertex="1">
          <mxGeometry x="50" width="200" height="20" as="geometry">
            <mxRectangle width="200" height="20" as="alternateBounds" />
          </mxGeometry>
        </mxCell>
        <mxCell id="n0A4wE0TodAf_xoFpRn0-26" style="shape=partialRectangle;html=1;whiteSpace=wrap;connectable=0;strokeColor=inherit;overflow=hidden;fillColor=none;top=0;left=0;bottom=0;right=0;pointerEvents=1;" parent="n0A4wE0TodAf_xoFpRn0-23" vertex="1">
          <mxGeometry x="250" width="350" height="20" as="geometry">
            <mxRectangle width="350" height="20" as="alternateBounds" />
          </mxGeometry>
        </mxCell>
        <mxCell id="n0A4wE0TodAf_xoFpRn0-27" style="shape=partialRectangle;html=1;whiteSpace=wrap;connectable=0;strokeColor=inherit;overflow=hidden;fillColor=none;top=0;left=0;bottom=0;right=0;pointerEvents=1;" parent="n0A4wE0TodAf_xoFpRn0-23" vertex="1">
          <mxGeometry x="600" width="150" height="20" as="geometry">
            <mxRectangle width="150" height="20" as="alternateBounds" />
          </mxGeometry>
        </mxCell>
        <mxCell id="n0A4wE0TodAf_xoFpRn0-28" style="shape=partialRectangle;html=1;whiteSpace=wrap;connectable=0;strokeColor=inherit;overflow=hidden;fillColor=none;top=0;left=0;bottom=0;right=0;pointerEvents=1;" parent="n0A4wE0TodAf_xoFpRn0-23" vertex="1">
          <mxGeometry x="750" width="60" height="20" as="geometry">
            <mxRectangle width="60" height="20" as="alternateBounds" />
          </mxGeometry>
        </mxCell>
        <mxCell id="n0A4wE0TodAf_xoFpRn0-29" style="shape=partialRectangle;html=1;whiteSpace=wrap;connectable=0;strokeColor=inherit;overflow=hidden;fillColor=none;top=0;left=0;bottom=0;right=0;pointerEvents=1;" parent="n0A4wE0TodAf_xoFpRn0-23" vertex="1">
          <mxGeometry x="810" width="60" height="20" as="geometry">
            <mxRectangle width="60" height="20" as="alternateBounds" />
          </mxGeometry>
        </mxCell>
        <mxCell id="n0A4wE0TodAf_xoFpRn0-30" style="shape=partialRectangle;html=1;whiteSpace=wrap;connectable=0;strokeColor=inherit;overflow=hidden;fillColor=none;top=0;left=0;bottom=0;right=0;pointerEvents=1;" parent="n0A4wE0TodAf_xoFpRn0-23" vertex="1">
          <mxGeometry x="870" width="600" height="20" as="geometry">
            <mxRectangle width="600" height="20" as="alternateBounds" />
          </mxGeometry>
        </mxCell>
        <mxCell id="n0A4wE0TodAf_xoFpRn0-31" style="shape=partialRectangle;html=1;whiteSpace=wrap;connectable=0;strokeColor=inherit;overflow=hidden;fillColor=none;top=0;left=0;bottom=0;right=0;pointerEvents=1;" parent="n0A4wE0TodAf_xoFpRn0-23" vertex="1">
          <mxGeometry x="1470" width="500" height="20" as="geometry">
            <mxRectangle width="500" height="20" as="alternateBounds" />
          </mxGeometry>
        </mxCell>
        <mxCell id="n0A4wE0TodAf_xoFpRn0-14" style="shape=tableRow;horizontal=0;startSize=0;swimlaneHead=0;swimlaneBody=0;strokeColor=inherit;top=0;left=0;bottom=0;right=0;collapsible=0;dropTarget=0;fillColor=none;points=[[0,0.5],[1,0.5]];portConstraint=eastwest;" parent="n0A4wE0TodAf_xoFpRn0-1" vertex="1">
          <mxGeometry y="60" width="1970" height="20" as="geometry" />
        </mxCell>
        <mxCell id="n0A4wE0TodAf_xoFpRn0-15" style="shape=partialRectangle;html=1;whiteSpace=wrap;connectable=0;strokeColor=inherit;overflow=hidden;fillColor=none;top=0;left=0;bottom=0;right=0;pointerEvents=1;" parent="n0A4wE0TodAf_xoFpRn0-14" vertex="1">
          <mxGeometry width="50" height="20" as="geometry">
            <mxRectangle width="50" height="20" as="alternateBounds" />
          </mxGeometry>
        </mxCell>
        <mxCell id="n0A4wE0TodAf_xoFpRn0-16" style="shape=partialRectangle;html=1;whiteSpace=wrap;connectable=0;strokeColor=inherit;overflow=hidden;fillColor=none;top=0;left=0;bottom=0;right=0;pointerEvents=1;" parent="n0A4wE0TodAf_xoFpRn0-14" vertex="1">
          <mxGeometry x="50" width="200" height="20" as="geometry">
            <mxRectangle width="200" height="20" as="alternateBounds" />
          </mxGeometry>
        </mxCell>
        <mxCell id="n0A4wE0TodAf_xoFpRn0-17" style="shape=partialRectangle;html=1;whiteSpace=wrap;connectable=0;strokeColor=inherit;overflow=hidden;fillColor=none;top=0;left=0;bottom=0;right=0;pointerEvents=1;" parent="n0A4wE0TodAf_xoFpRn0-14" vertex="1">
          <mxGeometry x="250" width="350" height="20" as="geometry">
            <mxRectangle width="350" height="20" as="alternateBounds" />
          </mxGeometry>
        </mxCell>
        <mxCell id="n0A4wE0TodAf_xoFpRn0-18" style="shape=partialRectangle;html=1;whiteSpace=wrap;connectable=0;strokeColor=inherit;overflow=hidden;fillColor=none;top=0;left=0;bottom=0;right=0;pointerEvents=1;" parent="n0A4wE0TodAf_xoFpRn0-14" vertex="1">
          <mxGeometry x="600" width="150" height="20" as="geometry">
            <mxRectangle width="150" height="20" as="alternateBounds" />
          </mxGeometry>
        </mxCell>
        <mxCell id="n0A4wE0TodAf_xoFpRn0-19" style="shape=partialRectangle;html=1;whiteSpace=wrap;connectable=0;strokeColor=inherit;overflow=hidden;fillColor=none;top=0;left=0;bottom=0;right=0;pointerEvents=1;" parent="n0A4wE0TodAf_xoFpRn0-14" vertex="1">
          <mxGeometry x="750" width="60" height="20" as="geometry">
            <mxRectangle width="60" height="20" as="alternateBounds" />
          </mxGeometry>
        </mxCell>
        <mxCell id="n0A4wE0TodAf_xoFpRn0-20" style="shape=partialRectangle;html=1;whiteSpace=wrap;connectable=0;strokeColor=inherit;overflow=hidden;fillColor=none;top=0;left=0;bottom=0;right=0;pointerEvents=1;" parent="n0A4wE0TodAf_xoFpRn0-14" vertex="1">
          <mxGeometry x="810" width="60" height="20" as="geometry">
            <mxRectangle width="60" height="20" as="alternateBounds" />
          </mxGeometry>
        </mxCell>
        <mxCell id="n0A4wE0TodAf_xoFpRn0-21" style="shape=partialRectangle;html=1;whiteSpace=wrap;connectable=0;strokeColor=inherit;overflow=hidden;fillColor=none;top=0;left=0;bottom=0;right=0;pointerEvents=1;" parent="n0A4wE0TodAf_xoFpRn0-14" vertex="1">
          <mxGeometry x="870" width="600" height="20" as="geometry">
            <mxRectangle width="600" height="20" as="alternateBounds" />
          </mxGeometry>
        </mxCell>
        <mxCell id="n0A4wE0TodAf_xoFpRn0-22" style="shape=partialRectangle;html=1;whiteSpace=wrap;connectable=0;strokeColor=inherit;overflow=hidden;fillColor=none;top=0;left=0;bottom=0;right=0;pointerEvents=1;" parent="n0A4wE0TodAf_xoFpRn0-14" vertex="1">
          <mxGeometry x="1470" width="500" height="20" as="geometry">
            <mxRectangle width="500" height="20" as="alternateBounds" />
          </mxGeometry>
        </mxCell>
        <mxCell id="n0A4wE0TodAf_xoFpRn0-11" value="◆入力項目" style="text;strokeColor=none;align=left;fillColor=none;html=1;verticalAlign=middle;whiteSpace=wrap;rounded=0;" parent="1" vertex="1">
          <mxGeometry x="80" y="770" width="90" height="30" as="geometry" />
        </mxCell>
        <mxCell id="n0A4wE0TodAf_xoFpRn0-41" value="" style="shape=table;startSize=0;container=1;collapsible=0;childLayout=tableLayout;rowLines=1;" parent="1" vertex="1">
          <mxGeometry x="100" y="990" width="1950" height="80" as="geometry" />
        </mxCell>
        <mxCell id="n0A4wE0TodAf_xoFpRn0-42" value="" style="shape=tableRow;horizontal=0;startSize=0;swimlaneHead=0;swimlaneBody=0;strokeColor=inherit;top=0;left=0;bottom=0;right=0;collapsible=0;dropTarget=0;fillColor=none;points=[[0,0.5],[1,0.5]];portConstraint=eastwest;" parent="n0A4wE0TodAf_xoFpRn0-41" vertex="1">
          <mxGeometry width="1950" height="20" as="geometry" />
        </mxCell>
        <mxCell id="n0A4wE0TodAf_xoFpRn0-43" value="No." style="shape=partialRectangle;html=1;whiteSpace=wrap;connectable=0;strokeColor=inherit;overflow=hidden;fillColor=none;top=0;left=0;bottom=0;right=0;pointerEvents=1;" parent="n0A4wE0TodAf_xoFpRn0-42" vertex="1">
          <mxGeometry width="50" height="20" as="geometry">
            <mxRectangle width="50" height="20" as="alternateBounds" />
          </mxGeometry>
        </mxCell>
        <mxCell id="n0A4wE0TodAf_xoFpRn0-44" value="エリア名" style="shape=partialRectangle;html=1;whiteSpace=wrap;connectable=0;strokeColor=inherit;overflow=hidden;fillColor=none;top=0;left=0;bottom=0;right=0;pointerEvents=1;" parent="n0A4wE0TodAf_xoFpRn0-42" vertex="1">
          <mxGeometry x="50" width="200" height="20" as="geometry">
            <mxRectangle width="200" height="20" as="alternateBounds" />
          </mxGeometry>
        </mxCell>
        <mxCell id="n0A4wE0TodAf_xoFpRn0-45" value="出力項目名" style="shape=partialRectangle;html=1;whiteSpace=wrap;connectable=0;strokeColor=inherit;overflow=hidden;fillColor=none;top=0;left=0;bottom=0;right=0;pointerEvents=1;" parent="n0A4wE0TodAf_xoFpRn0-42" vertex="1">
          <mxGeometry x="250" width="350" height="20" as="geometry">
            <mxRectangle width="350" height="20" as="alternateBounds" />
          </mxGeometry>
        </mxCell>
        <mxCell id="n0A4wE0TodAf_xoFpRn0-46" value="出力形式" style="shape=partialRectangle;html=1;whiteSpace=wrap;connectable=0;strokeColor=inherit;overflow=hidden;fillColor=none;top=0;left=0;bottom=0;right=0;pointerEvents=1;" parent="n0A4wE0TodAf_xoFpRn0-42" vertex="1">
          <mxGeometry x="600" width="150" height="20" as="geometry">
            <mxRectangle width="150" height="20" as="alternateBounds" />
          </mxGeometry>
        </mxCell>
        <mxCell id="n0A4wE0TodAf_xoFpRn0-49" value="説明" style="shape=partialRectangle;html=1;whiteSpace=wrap;connectable=0;strokeColor=inherit;overflow=hidden;fillColor=none;top=0;left=0;bottom=0;right=0;pointerEvents=1;" parent="n0A4wE0TodAf_xoFpRn0-42" vertex="1">
          <mxGeometry x="750" width="600" height="20" as="geometry">
            <mxRectangle width="600" height="20" as="alternateBounds" />
          </mxGeometry>
        </mxCell>
        <mxCell id="n0A4wE0TodAf_xoFpRn0-50" value="備考" style="shape=partialRectangle;html=1;whiteSpace=wrap;connectable=0;strokeColor=inherit;overflow=hidden;fillColor=none;top=0;left=0;bottom=0;right=0;pointerEvents=1;" parent="n0A4wE0TodAf_xoFpRn0-42" vertex="1">
          <mxGeometry x="1350" width="600" height="20" as="geometry">
            <mxRectangle width="600" height="20" as="alternateBounds" />
          </mxGeometry>
        </mxCell>
        <mxCell id="n0A4wE0TodAf_xoFpRn0-51" style="shape=tableRow;horizontal=0;startSize=0;swimlaneHead=0;swimlaneBody=0;strokeColor=inherit;top=0;left=0;bottom=0;right=0;collapsible=0;dropTarget=0;fillColor=none;points=[[0,0.5],[1,0.5]];portConstraint=eastwest;" parent="n0A4wE0TodAf_xoFpRn0-41" vertex="1">
          <mxGeometry y="20" width="1950" height="20" as="geometry" />
        </mxCell>
        <mxCell id="n0A4wE0TodAf_xoFpRn0-52" style="shape=partialRectangle;html=1;whiteSpace=wrap;connectable=0;strokeColor=inherit;overflow=hidden;fillColor=none;top=0;left=0;bottom=0;right=0;pointerEvents=1;" parent="n0A4wE0TodAf_xoFpRn0-51" vertex="1">
          <mxGeometry width="50" height="20" as="geometry">
            <mxRectangle width="50" height="20" as="alternateBounds" />
          </mxGeometry>
        </mxCell>
        <mxCell id="n0A4wE0TodAf_xoFpRn0-53" style="shape=partialRectangle;html=1;whiteSpace=wrap;connectable=0;strokeColor=inherit;overflow=hidden;fillColor=none;top=0;left=0;bottom=0;right=0;pointerEvents=1;" parent="n0A4wE0TodAf_xoFpRn0-51" vertex="1">
          <mxGeometry x="50" width="200" height="20" as="geometry">
            <mxRectangle width="200" height="20" as="alternateBounds" />
          </mxGeometry>
        </mxCell>
        <mxCell id="n0A4wE0TodAf_xoFpRn0-54" style="shape=partialRectangle;html=1;whiteSpace=wrap;connectable=0;strokeColor=inherit;overflow=hidden;fillColor=none;top=0;left=0;bottom=0;right=0;pointerEvents=1;" parent="n0A4wE0TodAf_xoFpRn0-51" vertex="1">
          <mxGeometry x="250" width="350" height="20" as="geometry">
            <mxRectangle width="350" height="20" as="alternateBounds" />
          </mxGeometry>
        </mxCell>
        <mxCell id="n0A4wE0TodAf_xoFpRn0-55" style="shape=partialRectangle;html=1;whiteSpace=wrap;connectable=0;strokeColor=inherit;overflow=hidden;fillColor=none;top=0;left=0;bottom=0;right=0;pointerEvents=1;" parent="n0A4wE0TodAf_xoFpRn0-51" vertex="1">
          <mxGeometry x="600" width="150" height="20" as="geometry">
            <mxRectangle width="150" height="20" as="alternateBounds" />
          </mxGeometry>
        </mxCell>
        <mxCell id="n0A4wE0TodAf_xoFpRn0-58" style="shape=partialRectangle;html=1;whiteSpace=wrap;connectable=0;strokeColor=inherit;overflow=hidden;fillColor=none;top=0;left=0;bottom=0;right=0;pointerEvents=1;" parent="n0A4wE0TodAf_xoFpRn0-51" vertex="1">
          <mxGeometry x="750" width="600" height="20" as="geometry">
            <mxRectangle width="600" height="20" as="alternateBounds" />
          </mxGeometry>
        </mxCell>
        <mxCell id="n0A4wE0TodAf_xoFpRn0-59" style="shape=partialRectangle;html=1;whiteSpace=wrap;connectable=0;strokeColor=inherit;overflow=hidden;fillColor=none;top=0;left=0;bottom=0;right=0;pointerEvents=1;" parent="n0A4wE0TodAf_xoFpRn0-51" vertex="1">
          <mxGeometry x="1350" width="600" height="20" as="geometry">
            <mxRectangle width="600" height="20" as="alternateBounds" />
          </mxGeometry>
        </mxCell>
        <mxCell id="n0A4wE0TodAf_xoFpRn0-60" style="shape=tableRow;horizontal=0;startSize=0;swimlaneHead=0;swimlaneBody=0;strokeColor=inherit;top=0;left=0;bottom=0;right=0;collapsible=0;dropTarget=0;fillColor=none;points=[[0,0.5],[1,0.5]];portConstraint=eastwest;" parent="n0A4wE0TodAf_xoFpRn0-41" vertex="1">
          <mxGeometry y="40" width="1950" height="20" as="geometry" />
        </mxCell>
        <mxCell id="n0A4wE0TodAf_xoFpRn0-61" style="shape=partialRectangle;html=1;whiteSpace=wrap;connectable=0;strokeColor=inherit;overflow=hidden;fillColor=none;top=0;left=0;bottom=0;right=0;pointerEvents=1;" parent="n0A4wE0TodAf_xoFpRn0-60" vertex="1">
          <mxGeometry width="50" height="20" as="geometry">
            <mxRectangle width="50" height="20" as="alternateBounds" />
          </mxGeometry>
        </mxCell>
        <mxCell id="n0A4wE0TodAf_xoFpRn0-62" style="shape=partialRectangle;html=1;whiteSpace=wrap;connectable=0;strokeColor=inherit;overflow=hidden;fillColor=none;top=0;left=0;bottom=0;right=0;pointerEvents=1;" parent="n0A4wE0TodAf_xoFpRn0-60" vertex="1">
          <mxGeometry x="50" width="200" height="20" as="geometry">
            <mxRectangle width="200" height="20" as="alternateBounds" />
          </mxGeometry>
        </mxCell>
        <mxCell id="n0A4wE0TodAf_xoFpRn0-63" style="shape=partialRectangle;html=1;whiteSpace=wrap;connectable=0;strokeColor=inherit;overflow=hidden;fillColor=none;top=0;left=0;bottom=0;right=0;pointerEvents=1;" parent="n0A4wE0TodAf_xoFpRn0-60" vertex="1">
          <mxGeometry x="250" width="350" height="20" as="geometry">
            <mxRectangle width="350" height="20" as="alternateBounds" />
          </mxGeometry>
        </mxCell>
        <mxCell id="n0A4wE0TodAf_xoFpRn0-64" style="shape=partialRectangle;html=1;whiteSpace=wrap;connectable=0;strokeColor=inherit;overflow=hidden;fillColor=none;top=0;left=0;bottom=0;right=0;pointerEvents=1;" parent="n0A4wE0TodAf_xoFpRn0-60" vertex="1">
          <mxGeometry x="600" width="150" height="20" as="geometry">
            <mxRectangle width="150" height="20" as="alternateBounds" />
          </mxGeometry>
        </mxCell>
        <mxCell id="n0A4wE0TodAf_xoFpRn0-67" style="shape=partialRectangle;html=1;whiteSpace=wrap;connectable=0;strokeColor=inherit;overflow=hidden;fillColor=none;top=0;left=0;bottom=0;right=0;pointerEvents=1;" parent="n0A4wE0TodAf_xoFpRn0-60" vertex="1">
          <mxGeometry x="750" width="600" height="20" as="geometry">
            <mxRectangle width="600" height="20" as="alternateBounds" />
          </mxGeometry>
        </mxCell>
        <mxCell id="n0A4wE0TodAf_xoFpRn0-68" style="shape=partialRectangle;html=1;whiteSpace=wrap;connectable=0;strokeColor=inherit;overflow=hidden;fillColor=none;top=0;left=0;bottom=0;right=0;pointerEvents=1;" parent="n0A4wE0TodAf_xoFpRn0-60" vertex="1">
          <mxGeometry x="1350" width="600" height="20" as="geometry">
            <mxRectangle width="600" height="20" as="alternateBounds" />
          </mxGeometry>
        </mxCell>
        <mxCell id="n0A4wE0TodAf_xoFpRn0-69" style="shape=tableRow;horizontal=0;startSize=0;swimlaneHead=0;swimlaneBody=0;strokeColor=inherit;top=0;left=0;bottom=0;right=0;collapsible=0;dropTarget=0;fillColor=none;points=[[0,0.5],[1,0.5]];portConstraint=eastwest;" parent="n0A4wE0TodAf_xoFpRn0-41" vertex="1">
          <mxGeometry y="60" width="1950" height="20" as="geometry" />
        </mxCell>
        <mxCell id="n0A4wE0TodAf_xoFpRn0-70" style="shape=partialRectangle;html=1;whiteSpace=wrap;connectable=0;strokeColor=inherit;overflow=hidden;fillColor=none;top=0;left=0;bottom=0;right=0;pointerEvents=1;" parent="n0A4wE0TodAf_xoFpRn0-69" vertex="1">
          <mxGeometry width="50" height="20" as="geometry">
            <mxRectangle width="50" height="20" as="alternateBounds" />
          </mxGeometry>
        </mxCell>
        <mxCell id="n0A4wE0TodAf_xoFpRn0-71" style="shape=partialRectangle;html=1;whiteSpace=wrap;connectable=0;strokeColor=inherit;overflow=hidden;fillColor=none;top=0;left=0;bottom=0;right=0;pointerEvents=1;" parent="n0A4wE0TodAf_xoFpRn0-69" vertex="1">
          <mxGeometry x="50" width="200" height="20" as="geometry">
            <mxRectangle width="200" height="20" as="alternateBounds" />
          </mxGeometry>
        </mxCell>
        <mxCell id="n0A4wE0TodAf_xoFpRn0-72" style="shape=partialRectangle;html=1;whiteSpace=wrap;connectable=0;strokeColor=inherit;overflow=hidden;fillColor=none;top=0;left=0;bottom=0;right=0;pointerEvents=1;" parent="n0A4wE0TodAf_xoFpRn0-69" vertex="1">
          <mxGeometry x="250" width="350" height="20" as="geometry">
            <mxRectangle width="350" height="20" as="alternateBounds" />
          </mxGeometry>
        </mxCell>
        <mxCell id="n0A4wE0TodAf_xoFpRn0-73" style="shape=partialRectangle;html=1;whiteSpace=wrap;connectable=0;strokeColor=inherit;overflow=hidden;fillColor=none;top=0;left=0;bottom=0;right=0;pointerEvents=1;" parent="n0A4wE0TodAf_xoFpRn0-69" vertex="1">
          <mxGeometry x="600" width="150" height="20" as="geometry">
            <mxRectangle width="150" height="20" as="alternateBounds" />
          </mxGeometry>
        </mxCell>
        <mxCell id="n0A4wE0TodAf_xoFpRn0-76" style="shape=partialRectangle;html=1;whiteSpace=wrap;connectable=0;strokeColor=inherit;overflow=hidden;fillColor=none;top=0;left=0;bottom=0;right=0;pointerEvents=1;" parent="n0A4wE0TodAf_xoFpRn0-69" vertex="1">
          <mxGeometry x="750" width="600" height="20" as="geometry">
            <mxRectangle width="600" height="20" as="alternateBounds" />
          </mxGeometry>
        </mxCell>
        <mxCell id="n0A4wE0TodAf_xoFpRn0-77" style="shape=partialRectangle;html=1;whiteSpace=wrap;connectable=0;strokeColor=inherit;overflow=hidden;fillColor=none;top=0;left=0;bottom=0;right=0;pointerEvents=1;" parent="n0A4wE0TodAf_xoFpRn0-69" vertex="1">
          <mxGeometry x="1350" width="600" height="20" as="geometry">
            <mxRectangle width="600" height="20" as="alternateBounds" />
          </mxGeometry>
        </mxCell>
        <mxCell id="n0A4wE0TodAf_xoFpRn0-78" value="◆出力項目" style="text;strokeColor=none;align=left;fillColor=none;html=1;verticalAlign=middle;whiteSpace=wrap;rounded=0;" parent="1" vertex="1">
          <mxGeometry x="80" y="960" width="90" height="30" as="geometry" />
        </mxCell>
      </root>
    </mxGraphModel>
  </diagram>
  <diagram name="ユーザー一覧" id="Z01yimw-Uff9HT8jdGKv">
    <mxGraphModel dx="1105" dy="705" grid="1" gridSize="10" guides="1" tooltips="1" connect="1" arrows="1" fold="1" page="1" pageScale="1" pageWidth="1100" pageHeight="850" math="0" shadow="0">
      <root>
        <mxCell id="-j5Gu1_YpHcUv96Zzp0Z-0" />
        <mxCell id="-j5Gu1_YpHcUv96Zzp0Z-1" parent="-j5Gu1_YpHcUv96Zzp0Z-0" />
        <mxCell id="-j5Gu1_YpHcUv96Zzp0Z-2" value="ユーザー一覧" style="rounded=0;whiteSpace=wrap;html=1;" vertex="1" parent="-j5Gu1_YpHcUv96Zzp0Z-1">
          <mxGeometry x="30" y="20" width="280" height="60" as="geometry" />
        </mxCell>
        <mxCell id="-j5Gu1_YpHcUv96Zzp0Z-3" value="" style="rounded=0;whiteSpace=wrap;html=1;fillColor=none;strokeWidth=0.5;" vertex="1" parent="-j5Gu1_YpHcUv96Zzp0Z-1">
          <mxGeometry x="80" y="120" width="480" height="600" as="geometry" />
        </mxCell>
        <mxCell id="-j5Gu1_YpHcUv96Zzp0Z-4" value="＜画面イメージ＞" style="text;strokeColor=none;align=center;fillColor=none;html=1;verticalAlign=middle;whiteSpace=wrap;rounded=0;" vertex="1" parent="-j5Gu1_YpHcUv96Zzp0Z-1">
          <mxGeometry x="50" y="90" width="120" height="30" as="geometry" />
        </mxCell>
        <mxCell id="-j5Gu1_YpHcUv96Zzp0Z-5" value="" style="shape=table;startSize=0;container=1;collapsible=0;childLayout=tableLayout;rowLines=1;" vertex="1" parent="-j5Gu1_YpHcUv96Zzp0Z-1">
          <mxGeometry x="100" y="800" width="1970" height="190" as="geometry" />
        </mxCell>
        <mxCell id="-j5Gu1_YpHcUv96Zzp0Z-6" value="" style="shape=tableRow;horizontal=0;startSize=0;swimlaneHead=0;swimlaneBody=0;strokeColor=inherit;top=0;left=0;bottom=0;right=0;collapsible=0;dropTarget=0;fillColor=none;points=[[0,0.5],[1,0.5]];portConstraint=eastwest;" vertex="1" parent="-j5Gu1_YpHcUv96Zzp0Z-5">
          <mxGeometry width="1970" height="20" as="geometry" />
        </mxCell>
        <mxCell id="-j5Gu1_YpHcUv96Zzp0Z-7" value="No." style="shape=partialRectangle;html=1;whiteSpace=wrap;connectable=0;strokeColor=inherit;overflow=hidden;fillColor=none;top=0;left=0;bottom=0;right=0;pointerEvents=1;" vertex="1" parent="-j5Gu1_YpHcUv96Zzp0Z-6">
          <mxGeometry width="50" height="20" as="geometry">
            <mxRectangle width="50" height="20" as="alternateBounds" />
          </mxGeometry>
        </mxCell>
        <mxCell id="-j5Gu1_YpHcUv96Zzp0Z-8" value="エリア名" style="shape=partialRectangle;html=1;whiteSpace=wrap;connectable=0;strokeColor=inherit;overflow=hidden;fillColor=none;top=0;left=0;bottom=0;right=0;pointerEvents=1;" vertex="1" parent="-j5Gu1_YpHcUv96Zzp0Z-6">
          <mxGeometry x="50" width="200" height="20" as="geometry">
            <mxRectangle width="200" height="20" as="alternateBounds" />
          </mxGeometry>
        </mxCell>
        <mxCell id="-j5Gu1_YpHcUv96Zzp0Z-9" value="入力項目名" style="shape=partialRectangle;html=1;whiteSpace=wrap;connectable=0;strokeColor=inherit;overflow=hidden;fillColor=none;top=0;left=0;bottom=0;right=0;pointerEvents=1;" vertex="1" parent="-j5Gu1_YpHcUv96Zzp0Z-6">
          <mxGeometry x="250" width="350" height="20" as="geometry">
            <mxRectangle width="350" height="20" as="alternateBounds" />
          </mxGeometry>
        </mxCell>
        <mxCell id="-j5Gu1_YpHcUv96Zzp0Z-10" value="入力形式" style="shape=partialRectangle;html=1;whiteSpace=wrap;connectable=0;strokeColor=inherit;overflow=hidden;fillColor=none;top=0;left=0;bottom=0;right=0;pointerEvents=1;" vertex="1" parent="-j5Gu1_YpHcUv96Zzp0Z-6">
          <mxGeometry x="600" width="150" height="20" as="geometry">
            <mxRectangle width="150" height="20" as="alternateBounds" />
          </mxGeometry>
        </mxCell>
        <mxCell id="-j5Gu1_YpHcUv96Zzp0Z-11" value="桁数" style="shape=partialRectangle;html=1;whiteSpace=wrap;connectable=0;strokeColor=inherit;overflow=hidden;fillColor=none;top=0;left=0;bottom=0;right=0;pointerEvents=1;" vertex="1" parent="-j5Gu1_YpHcUv96Zzp0Z-6">
          <mxGeometry x="750" width="60" height="20" as="geometry">
            <mxRectangle width="60" height="20" as="alternateBounds" />
          </mxGeometry>
        </mxCell>
        <mxCell id="-j5Gu1_YpHcUv96Zzp0Z-12" value="必須" style="shape=partialRectangle;html=1;whiteSpace=wrap;connectable=0;strokeColor=inherit;overflow=hidden;fillColor=none;top=0;left=0;bottom=0;right=0;pointerEvents=1;" vertex="1" parent="-j5Gu1_YpHcUv96Zzp0Z-6">
          <mxGeometry x="810" width="60" height="20" as="geometry">
            <mxRectangle width="60" height="20" as="alternateBounds" />
          </mxGeometry>
        </mxCell>
        <mxCell id="-j5Gu1_YpHcUv96Zzp0Z-13" value="チェック内容" style="shape=partialRectangle;html=1;whiteSpace=wrap;connectable=0;strokeColor=inherit;overflow=hidden;fillColor=none;top=0;left=0;bottom=0;right=0;pointerEvents=1;" vertex="1" parent="-j5Gu1_YpHcUv96Zzp0Z-6">
          <mxGeometry x="870" width="600" height="20" as="geometry">
            <mxRectangle width="600" height="20" as="alternateBounds" />
          </mxGeometry>
        </mxCell>
        <mxCell id="-j5Gu1_YpHcUv96Zzp0Z-14" value="備考" style="shape=partialRectangle;html=1;whiteSpace=wrap;connectable=0;strokeColor=inherit;overflow=hidden;fillColor=none;top=0;left=0;bottom=0;right=0;pointerEvents=1;" vertex="1" parent="-j5Gu1_YpHcUv96Zzp0Z-6">
          <mxGeometry x="1470" width="500" height="20" as="geometry">
            <mxRectangle width="500" height="20" as="alternateBounds" />
          </mxGeometry>
        </mxCell>
        <mxCell id="-j5Gu1_YpHcUv96Zzp0Z-15" style="shape=tableRow;horizontal=0;startSize=0;swimlaneHead=0;swimlaneBody=0;strokeColor=inherit;top=0;left=0;bottom=0;right=0;collapsible=0;dropTarget=0;fillColor=none;points=[[0,0.5],[1,0.5]];portConstraint=eastwest;" vertex="1" parent="-j5Gu1_YpHcUv96Zzp0Z-5">
          <mxGeometry y="20" width="1970" height="130" as="geometry" />
        </mxCell>
        <mxCell id="-j5Gu1_YpHcUv96Zzp0Z-16" value="1" style="shape=partialRectangle;html=1;whiteSpace=wrap;connectable=0;strokeColor=inherit;overflow=hidden;fillColor=none;top=0;left=0;bottom=0;right=0;pointerEvents=1;align=right;verticalAlign=top;" vertex="1" parent="-j5Gu1_YpHcUv96Zzp0Z-15">
          <mxGeometry width="50" height="130" as="geometry">
            <mxRectangle width="50" height="130" as="alternateBounds" />
          </mxGeometry>
        </mxCell>
        <mxCell id="-j5Gu1_YpHcUv96Zzp0Z-17" value="検索" style="shape=partialRectangle;html=1;whiteSpace=wrap;connectable=0;strokeColor=inherit;overflow=hidden;fillColor=none;top=0;left=0;bottom=0;right=0;pointerEvents=1;align=left;verticalAlign=top;" vertex="1" parent="-j5Gu1_YpHcUv96Zzp0Z-15">
          <mxGeometry x="50" width="200" height="130" as="geometry">
            <mxRectangle width="200" height="130" as="alternateBounds" />
          </mxGeometry>
        </mxCell>
        <mxCell id="-j5Gu1_YpHcUv96Zzp0Z-18" value="検索" style="shape=partialRectangle;html=1;whiteSpace=wrap;connectable=0;strokeColor=inherit;overflow=hidden;fillColor=none;top=0;left=0;bottom=0;right=0;pointerEvents=1;align=left;verticalAlign=top;" vertex="1" parent="-j5Gu1_YpHcUv96Zzp0Z-15">
          <mxGeometry x="250" width="350" height="130" as="geometry">
            <mxRectangle width="350" height="130" as="alternateBounds" />
          </mxGeometry>
        </mxCell>
        <mxCell id="-j5Gu1_YpHcUv96Zzp0Z-19" value="プルダウン" style="shape=partialRectangle;html=1;whiteSpace=wrap;connectable=0;strokeColor=inherit;overflow=hidden;fillColor=none;top=0;left=0;bottom=0;right=0;pointerEvents=1;" vertex="1" parent="-j5Gu1_YpHcUv96Zzp0Z-15">
          <mxGeometry x="600" width="150" height="130" as="geometry">
            <mxRectangle width="150" height="130" as="alternateBounds" />
          </mxGeometry>
        </mxCell>
        <mxCell id="-j5Gu1_YpHcUv96Zzp0Z-20" value="---" style="shape=partialRectangle;html=1;whiteSpace=wrap;connectable=0;strokeColor=inherit;overflow=hidden;fillColor=none;top=0;left=0;bottom=0;right=0;pointerEvents=1;" vertex="1" parent="-j5Gu1_YpHcUv96Zzp0Z-15">
          <mxGeometry x="750" width="60" height="130" as="geometry">
            <mxRectangle width="60" height="130" as="alternateBounds" />
          </mxGeometry>
        </mxCell>
        <mxCell id="-j5Gu1_YpHcUv96Zzp0Z-21" value="---" style="shape=partialRectangle;html=1;whiteSpace=wrap;connectable=0;strokeColor=inherit;overflow=hidden;fillColor=none;top=0;left=0;bottom=0;right=0;pointerEvents=1;" vertex="1" parent="-j5Gu1_YpHcUv96Zzp0Z-15">
          <mxGeometry x="810" width="60" height="130" as="geometry">
            <mxRectangle width="60" height="130" as="alternateBounds" />
          </mxGeometry>
        </mxCell>
        <mxCell id="-j5Gu1_YpHcUv96Zzp0Z-22" value="ロールによる絞り込みを行うプルダウンメニュー&lt;br&gt;&lt;br&gt;下記のいずれかの入力値に応じてユーザーの絞り込みが可能&lt;br&gt;デフォルトの値は「すべて」とする&lt;br&gt;・すべて&lt;br&gt;・管理者&lt;br&gt;・スタッフ&lt;br&gt;・一般ユーザー" style="shape=partialRectangle;html=1;whiteSpace=wrap;connectable=0;strokeColor=inherit;overflow=hidden;fillColor=none;top=0;left=0;bottom=0;right=0;pointerEvents=1;align=left;verticalAlign=top;" vertex="1" parent="-j5Gu1_YpHcUv96Zzp0Z-15">
          <mxGeometry x="870" width="600" height="130" as="geometry">
            <mxRectangle width="600" height="130" as="alternateBounds" />
          </mxGeometry>
        </mxCell>
        <mxCell id="-j5Gu1_YpHcUv96Zzp0Z-23" style="shape=partialRectangle;html=1;whiteSpace=wrap;connectable=0;strokeColor=inherit;overflow=hidden;fillColor=none;top=0;left=0;bottom=0;right=0;pointerEvents=1;align=left;verticalAlign=top;" vertex="1" parent="-j5Gu1_YpHcUv96Zzp0Z-15">
          <mxGeometry x="1470" width="500" height="130" as="geometry">
            <mxRectangle width="500" height="130" as="alternateBounds" />
          </mxGeometry>
        </mxCell>
        <mxCell id="-j5Gu1_YpHcUv96Zzp0Z-24" style="shape=tableRow;horizontal=0;startSize=0;swimlaneHead=0;swimlaneBody=0;strokeColor=inherit;top=0;left=0;bottom=0;right=0;collapsible=0;dropTarget=0;fillColor=none;points=[[0,0.5],[1,0.5]];portConstraint=eastwest;" vertex="1" parent="-j5Gu1_YpHcUv96Zzp0Z-5">
          <mxGeometry y="150" width="1970" height="20" as="geometry" />
        </mxCell>
        <mxCell id="-j5Gu1_YpHcUv96Zzp0Z-25" style="shape=partialRectangle;html=1;whiteSpace=wrap;connectable=0;strokeColor=inherit;overflow=hidden;fillColor=none;top=0;left=0;bottom=0;right=0;pointerEvents=1;align=right;" vertex="1" parent="-j5Gu1_YpHcUv96Zzp0Z-24">
          <mxGeometry width="50" height="20" as="geometry">
            <mxRectangle width="50" height="20" as="alternateBounds" />
          </mxGeometry>
        </mxCell>
        <mxCell id="-j5Gu1_YpHcUv96Zzp0Z-26" style="shape=partialRectangle;html=1;whiteSpace=wrap;connectable=0;strokeColor=inherit;overflow=hidden;fillColor=none;top=0;left=0;bottom=0;right=0;pointerEvents=1;align=left;" vertex="1" parent="-j5Gu1_YpHcUv96Zzp0Z-24">
          <mxGeometry x="50" width="200" height="20" as="geometry">
            <mxRectangle width="200" height="20" as="alternateBounds" />
          </mxGeometry>
        </mxCell>
        <mxCell id="-j5Gu1_YpHcUv96Zzp0Z-27" style="shape=partialRectangle;html=1;whiteSpace=wrap;connectable=0;strokeColor=inherit;overflow=hidden;fillColor=none;top=0;left=0;bottom=0;right=0;pointerEvents=1;align=left;" vertex="1" parent="-j5Gu1_YpHcUv96Zzp0Z-24">
          <mxGeometry x="250" width="350" height="20" as="geometry">
            <mxRectangle width="350" height="20" as="alternateBounds" />
          </mxGeometry>
        </mxCell>
        <mxCell id="-j5Gu1_YpHcUv96Zzp0Z-28" style="shape=partialRectangle;html=1;whiteSpace=wrap;connectable=0;strokeColor=inherit;overflow=hidden;fillColor=none;top=0;left=0;bottom=0;right=0;pointerEvents=1;" vertex="1" parent="-j5Gu1_YpHcUv96Zzp0Z-24">
          <mxGeometry x="600" width="150" height="20" as="geometry">
            <mxRectangle width="150" height="20" as="alternateBounds" />
          </mxGeometry>
        </mxCell>
        <mxCell id="-j5Gu1_YpHcUv96Zzp0Z-29" style="shape=partialRectangle;html=1;whiteSpace=wrap;connectable=0;strokeColor=inherit;overflow=hidden;fillColor=none;top=0;left=0;bottom=0;right=0;pointerEvents=1;" vertex="1" parent="-j5Gu1_YpHcUv96Zzp0Z-24">
          <mxGeometry x="750" width="60" height="20" as="geometry">
            <mxRectangle width="60" height="20" as="alternateBounds" />
          </mxGeometry>
        </mxCell>
        <mxCell id="-j5Gu1_YpHcUv96Zzp0Z-30" style="shape=partialRectangle;html=1;whiteSpace=wrap;connectable=0;strokeColor=inherit;overflow=hidden;fillColor=none;top=0;left=0;bottom=0;right=0;pointerEvents=1;" vertex="1" parent="-j5Gu1_YpHcUv96Zzp0Z-24">
          <mxGeometry x="810" width="60" height="20" as="geometry">
            <mxRectangle width="60" height="20" as="alternateBounds" />
          </mxGeometry>
        </mxCell>
        <mxCell id="-j5Gu1_YpHcUv96Zzp0Z-31" style="shape=partialRectangle;html=1;whiteSpace=wrap;connectable=0;strokeColor=inherit;overflow=hidden;fillColor=none;top=0;left=0;bottom=0;right=0;pointerEvents=1;align=left;verticalAlign=top;" vertex="1" parent="-j5Gu1_YpHcUv96Zzp0Z-24">
          <mxGeometry x="870" width="600" height="20" as="geometry">
            <mxRectangle width="600" height="20" as="alternateBounds" />
          </mxGeometry>
        </mxCell>
        <mxCell id="-j5Gu1_YpHcUv96Zzp0Z-32" style="shape=partialRectangle;html=1;whiteSpace=wrap;connectable=0;strokeColor=inherit;overflow=hidden;fillColor=none;top=0;left=0;bottom=0;right=0;pointerEvents=1;align=left;verticalAlign=top;" vertex="1" parent="-j5Gu1_YpHcUv96Zzp0Z-24">
          <mxGeometry x="1470" width="500" height="20" as="geometry">
            <mxRectangle width="500" height="20" as="alternateBounds" />
          </mxGeometry>
        </mxCell>
        <mxCell id="-j5Gu1_YpHcUv96Zzp0Z-33" style="shape=tableRow;horizontal=0;startSize=0;swimlaneHead=0;swimlaneBody=0;strokeColor=inherit;top=0;left=0;bottom=0;right=0;collapsible=0;dropTarget=0;fillColor=none;points=[[0,0.5],[1,0.5]];portConstraint=eastwest;" vertex="1" parent="-j5Gu1_YpHcUv96Zzp0Z-5">
          <mxGeometry y="170" width="1970" height="20" as="geometry" />
        </mxCell>
        <mxCell id="-j5Gu1_YpHcUv96Zzp0Z-34" style="shape=partialRectangle;html=1;whiteSpace=wrap;connectable=0;strokeColor=inherit;overflow=hidden;fillColor=none;top=0;left=0;bottom=0;right=0;pointerEvents=1;align=right;" vertex="1" parent="-j5Gu1_YpHcUv96Zzp0Z-33">
          <mxGeometry width="50" height="20" as="geometry">
            <mxRectangle width="50" height="20" as="alternateBounds" />
          </mxGeometry>
        </mxCell>
        <mxCell id="-j5Gu1_YpHcUv96Zzp0Z-35" style="shape=partialRectangle;html=1;whiteSpace=wrap;connectable=0;strokeColor=inherit;overflow=hidden;fillColor=none;top=0;left=0;bottom=0;right=0;pointerEvents=1;align=left;" vertex="1" parent="-j5Gu1_YpHcUv96Zzp0Z-33">
          <mxGeometry x="50" width="200" height="20" as="geometry">
            <mxRectangle width="200" height="20" as="alternateBounds" />
          </mxGeometry>
        </mxCell>
        <mxCell id="-j5Gu1_YpHcUv96Zzp0Z-36" style="shape=partialRectangle;html=1;whiteSpace=wrap;connectable=0;strokeColor=inherit;overflow=hidden;fillColor=none;top=0;left=0;bottom=0;right=0;pointerEvents=1;align=left;" vertex="1" parent="-j5Gu1_YpHcUv96Zzp0Z-33">
          <mxGeometry x="250" width="350" height="20" as="geometry">
            <mxRectangle width="350" height="20" as="alternateBounds" />
          </mxGeometry>
        </mxCell>
        <mxCell id="-j5Gu1_YpHcUv96Zzp0Z-37" style="shape=partialRectangle;html=1;whiteSpace=wrap;connectable=0;strokeColor=inherit;overflow=hidden;fillColor=none;top=0;left=0;bottom=0;right=0;pointerEvents=1;" vertex="1" parent="-j5Gu1_YpHcUv96Zzp0Z-33">
          <mxGeometry x="600" width="150" height="20" as="geometry">
            <mxRectangle width="150" height="20" as="alternateBounds" />
          </mxGeometry>
        </mxCell>
        <mxCell id="-j5Gu1_YpHcUv96Zzp0Z-38" style="shape=partialRectangle;html=1;whiteSpace=wrap;connectable=0;strokeColor=inherit;overflow=hidden;fillColor=none;top=0;left=0;bottom=0;right=0;pointerEvents=1;" vertex="1" parent="-j5Gu1_YpHcUv96Zzp0Z-33">
          <mxGeometry x="750" width="60" height="20" as="geometry">
            <mxRectangle width="60" height="20" as="alternateBounds" />
          </mxGeometry>
        </mxCell>
        <mxCell id="-j5Gu1_YpHcUv96Zzp0Z-39" style="shape=partialRectangle;html=1;whiteSpace=wrap;connectable=0;strokeColor=inherit;overflow=hidden;fillColor=none;top=0;left=0;bottom=0;right=0;pointerEvents=1;" vertex="1" parent="-j5Gu1_YpHcUv96Zzp0Z-33">
          <mxGeometry x="810" width="60" height="20" as="geometry">
            <mxRectangle width="60" height="20" as="alternateBounds" />
          </mxGeometry>
        </mxCell>
        <mxCell id="-j5Gu1_YpHcUv96Zzp0Z-40" style="shape=partialRectangle;html=1;whiteSpace=wrap;connectable=0;strokeColor=inherit;overflow=hidden;fillColor=none;top=0;left=0;bottom=0;right=0;pointerEvents=1;align=left;verticalAlign=top;" vertex="1" parent="-j5Gu1_YpHcUv96Zzp0Z-33">
          <mxGeometry x="870" width="600" height="20" as="geometry">
            <mxRectangle width="600" height="20" as="alternateBounds" />
          </mxGeometry>
        </mxCell>
        <mxCell id="-j5Gu1_YpHcUv96Zzp0Z-41" style="shape=partialRectangle;html=1;whiteSpace=wrap;connectable=0;strokeColor=inherit;overflow=hidden;fillColor=none;top=0;left=0;bottom=0;right=0;pointerEvents=1;align=left;verticalAlign=top;" vertex="1" parent="-j5Gu1_YpHcUv96Zzp0Z-33">
          <mxGeometry x="1470" width="500" height="20" as="geometry">
            <mxRectangle width="500" height="20" as="alternateBounds" />
          </mxGeometry>
        </mxCell>
        <mxCell id="-j5Gu1_YpHcUv96Zzp0Z-42" value="◆入力項目" style="text;strokeColor=none;align=left;fillColor=none;html=1;verticalAlign=middle;whiteSpace=wrap;rounded=0;" vertex="1" parent="-j5Gu1_YpHcUv96Zzp0Z-1">
          <mxGeometry x="80" y="770" width="90" height="30" as="geometry" />
        </mxCell>
        <mxCell id="-j5Gu1_YpHcUv96Zzp0Z-43" value="" style="shape=table;startSize=0;container=1;collapsible=0;childLayout=tableLayout;rowLines=1;" vertex="1" parent="-j5Gu1_YpHcUv96Zzp0Z-1">
          <mxGeometry x="100" y="1070" width="1950" height="250" as="geometry" />
        </mxCell>
        <mxCell id="-j5Gu1_YpHcUv96Zzp0Z-44" value="" style="shape=tableRow;horizontal=0;startSize=0;swimlaneHead=0;swimlaneBody=0;strokeColor=inherit;top=0;left=0;bottom=0;right=0;collapsible=0;dropTarget=0;fillColor=none;points=[[0,0.5],[1,0.5]];portConstraint=eastwest;" vertex="1" parent="-j5Gu1_YpHcUv96Zzp0Z-43">
          <mxGeometry width="1950" height="20" as="geometry" />
        </mxCell>
        <mxCell id="-j5Gu1_YpHcUv96Zzp0Z-45" value="No." style="shape=partialRectangle;html=1;whiteSpace=wrap;connectable=0;strokeColor=inherit;overflow=hidden;fillColor=none;top=0;left=0;bottom=0;right=0;pointerEvents=1;" vertex="1" parent="-j5Gu1_YpHcUv96Zzp0Z-44">
          <mxGeometry width="50" height="20" as="geometry">
            <mxRectangle width="50" height="20" as="alternateBounds" />
          </mxGeometry>
        </mxCell>
        <mxCell id="-j5Gu1_YpHcUv96Zzp0Z-46" value="エリア名" style="shape=partialRectangle;html=1;whiteSpace=wrap;connectable=0;strokeColor=inherit;overflow=hidden;fillColor=none;top=0;left=0;bottom=0;right=0;pointerEvents=1;" vertex="1" parent="-j5Gu1_YpHcUv96Zzp0Z-44">
          <mxGeometry x="50" width="200" height="20" as="geometry">
            <mxRectangle width="200" height="20" as="alternateBounds" />
          </mxGeometry>
        </mxCell>
        <mxCell id="-j5Gu1_YpHcUv96Zzp0Z-47" value="出力項目名" style="shape=partialRectangle;html=1;whiteSpace=wrap;connectable=0;strokeColor=inherit;overflow=hidden;fillColor=none;top=0;left=0;bottom=0;right=0;pointerEvents=1;" vertex="1" parent="-j5Gu1_YpHcUv96Zzp0Z-44">
          <mxGeometry x="250" width="350" height="20" as="geometry">
            <mxRectangle width="350" height="20" as="alternateBounds" />
          </mxGeometry>
        </mxCell>
        <mxCell id="-j5Gu1_YpHcUv96Zzp0Z-48" value="出力形式" style="shape=partialRectangle;html=1;whiteSpace=wrap;connectable=0;strokeColor=inherit;overflow=hidden;fillColor=none;top=0;left=0;bottom=0;right=0;pointerEvents=1;" vertex="1" parent="-j5Gu1_YpHcUv96Zzp0Z-44">
          <mxGeometry x="600" width="150" height="20" as="geometry">
            <mxRectangle width="150" height="20" as="alternateBounds" />
          </mxGeometry>
        </mxCell>
        <mxCell id="-j5Gu1_YpHcUv96Zzp0Z-49" value="説明" style="shape=partialRectangle;html=1;whiteSpace=wrap;connectable=0;strokeColor=inherit;overflow=hidden;fillColor=none;top=0;left=0;bottom=0;right=0;pointerEvents=1;" vertex="1" parent="-j5Gu1_YpHcUv96Zzp0Z-44">
          <mxGeometry x="750" width="600" height="20" as="geometry">
            <mxRectangle width="600" height="20" as="alternateBounds" />
          </mxGeometry>
        </mxCell>
        <mxCell id="-j5Gu1_YpHcUv96Zzp0Z-50" value="備考" style="shape=partialRectangle;html=1;whiteSpace=wrap;connectable=0;strokeColor=inherit;overflow=hidden;fillColor=none;top=0;left=0;bottom=0;right=0;pointerEvents=1;" vertex="1" parent="-j5Gu1_YpHcUv96Zzp0Z-44">
          <mxGeometry x="1350" width="600" height="20" as="geometry">
            <mxRectangle width="600" height="20" as="alternateBounds" />
          </mxGeometry>
        </mxCell>
        <mxCell id="-j5Gu1_YpHcUv96Zzp0Z-51" style="shape=tableRow;horizontal=0;startSize=0;swimlaneHead=0;swimlaneBody=0;strokeColor=inherit;top=0;left=0;bottom=0;right=0;collapsible=0;dropTarget=0;fillColor=none;points=[[0,0.5],[1,0.5]];portConstraint=eastwest;" vertex="1" parent="-j5Gu1_YpHcUv96Zzp0Z-43">
          <mxGeometry y="20" width="1950" height="30" as="geometry" />
        </mxCell>
        <mxCell id="-j5Gu1_YpHcUv96Zzp0Z-52" value="1" style="shape=partialRectangle;html=1;whiteSpace=wrap;connectable=0;strokeColor=inherit;overflow=hidden;fillColor=none;top=0;left=0;bottom=0;right=0;pointerEvents=1;align=right;verticalAlign=top;" vertex="1" parent="-j5Gu1_YpHcUv96Zzp0Z-51">
          <mxGeometry width="50" height="30" as="geometry">
            <mxRectangle width="50" height="30" as="alternateBounds" />
          </mxGeometry>
        </mxCell>
        <mxCell id="-j5Gu1_YpHcUv96Zzp0Z-53" value="一覧" style="shape=partialRectangle;html=1;whiteSpace=wrap;connectable=0;strokeColor=inherit;overflow=hidden;fillColor=none;top=0;left=0;bottom=0;right=0;pointerEvents=1;align=left;rowspan=4;colspan=1;verticalAlign=top;" vertex="1" parent="-j5Gu1_YpHcUv96Zzp0Z-51">
          <mxGeometry x="50" width="200" height="190" as="geometry">
            <mxRectangle width="200" height="30" as="alternateBounds" />
          </mxGeometry>
        </mxCell>
        <mxCell id="-j5Gu1_YpHcUv96Zzp0Z-54" value="ID" style="shape=partialRectangle;html=1;whiteSpace=wrap;connectable=0;strokeColor=inherit;overflow=hidden;fillColor=none;top=0;left=0;bottom=0;right=0;pointerEvents=1;align=left;verticalAlign=top;" vertex="1" parent="-j5Gu1_YpHcUv96Zzp0Z-51">
          <mxGeometry x="250" width="350" height="30" as="geometry">
            <mxRectangle width="350" height="30" as="alternateBounds" />
          </mxGeometry>
        </mxCell>
        <mxCell id="-j5Gu1_YpHcUv96Zzp0Z-55" value="テキスト" style="shape=partialRectangle;html=1;whiteSpace=wrap;connectable=0;strokeColor=inherit;overflow=hidden;fillColor=none;top=0;left=0;bottom=0;right=0;pointerEvents=1;" vertex="1" parent="-j5Gu1_YpHcUv96Zzp0Z-51">
          <mxGeometry x="600" width="150" height="30" as="geometry">
            <mxRectangle width="150" height="30" as="alternateBounds" />
          </mxGeometry>
        </mxCell>
        <mxCell id="-j5Gu1_YpHcUv96Zzp0Z-56" value="各ユーザーのテーブルレコードIDを表示" style="shape=partialRectangle;html=1;whiteSpace=wrap;connectable=0;strokeColor=inherit;overflow=hidden;fillColor=none;top=0;left=0;bottom=0;right=0;pointerEvents=1;align=left;verticalAlign=top;" vertex="1" parent="-j5Gu1_YpHcUv96Zzp0Z-51">
          <mxGeometry x="750" width="600" height="30" as="geometry">
            <mxRectangle width="600" height="30" as="alternateBounds" />
          </mxGeometry>
        </mxCell>
        <mxCell id="-j5Gu1_YpHcUv96Zzp0Z-57" value="一覧は25件ごとに表示" style="shape=partialRectangle;html=1;whiteSpace=wrap;connectable=0;strokeColor=inherit;overflow=hidden;fillColor=none;top=0;left=0;bottom=0;right=0;pointerEvents=1;align=left;verticalAlign=top;" vertex="1" parent="-j5Gu1_YpHcUv96Zzp0Z-51">
          <mxGeometry x="1350" width="600" height="30" as="geometry">
            <mxRectangle width="600" height="30" as="alternateBounds" />
          </mxGeometry>
        </mxCell>
        <mxCell id="-j5Gu1_YpHcUv96Zzp0Z-58" style="shape=tableRow;horizontal=0;startSize=0;swimlaneHead=0;swimlaneBody=0;strokeColor=inherit;top=0;left=0;bottom=0;right=0;collapsible=0;dropTarget=0;fillColor=none;points=[[0,0.5],[1,0.5]];portConstraint=eastwest;" vertex="1" parent="-j5Gu1_YpHcUv96Zzp0Z-43">
          <mxGeometry y="50" width="1950" height="30" as="geometry" />
        </mxCell>
        <mxCell id="-j5Gu1_YpHcUv96Zzp0Z-59" value="2" style="shape=partialRectangle;html=1;whiteSpace=wrap;connectable=0;strokeColor=inherit;overflow=hidden;fillColor=none;top=0;left=0;bottom=0;right=0;pointerEvents=1;align=right;verticalAlign=top;" vertex="1" parent="-j5Gu1_YpHcUv96Zzp0Z-58">
          <mxGeometry width="50" height="30" as="geometry">
            <mxRectangle width="50" height="30" as="alternateBounds" />
          </mxGeometry>
        </mxCell>
        <mxCell id="-j5Gu1_YpHcUv96Zzp0Z-60" value="名前" style="shape=partialRectangle;html=1;whiteSpace=wrap;connectable=0;strokeColor=inherit;overflow=hidden;fillColor=none;top=0;left=0;bottom=0;right=0;pointerEvents=1;align=left;verticalAlign=top;" vertex="1" visible="0" parent="-j5Gu1_YpHcUv96Zzp0Z-58">
          <mxGeometry x="50" width="200" height="30" as="geometry">
            <mxRectangle width="200" height="30" as="alternateBounds" />
          </mxGeometry>
        </mxCell>
        <mxCell id="-j5Gu1_YpHcUv96Zzp0Z-61" value="名前" style="shape=partialRectangle;html=1;whiteSpace=wrap;connectable=0;strokeColor=inherit;overflow=hidden;fillColor=none;top=0;left=0;bottom=0;right=0;pointerEvents=1;align=left;verticalAlign=top;" vertex="1" parent="-j5Gu1_YpHcUv96Zzp0Z-58">
          <mxGeometry x="250" width="350" height="30" as="geometry">
            <mxRectangle width="350" height="30" as="alternateBounds" />
          </mxGeometry>
        </mxCell>
        <mxCell id="-j5Gu1_YpHcUv96Zzp0Z-62" value="テキスト" style="shape=partialRectangle;html=1;whiteSpace=wrap;connectable=0;strokeColor=inherit;overflow=hidden;fillColor=none;top=0;left=0;bottom=0;right=0;pointerEvents=1;" vertex="1" parent="-j5Gu1_YpHcUv96Zzp0Z-58">
          <mxGeometry x="600" width="150" height="30" as="geometry">
            <mxRectangle width="150" height="30" as="alternateBounds" />
          </mxGeometry>
        </mxCell>
        <mxCell id="-j5Gu1_YpHcUv96Zzp0Z-63" value="テーブルに登録されている各ユーザーの名前を表示" style="shape=partialRectangle;html=1;whiteSpace=wrap;connectable=0;strokeColor=inherit;overflow=hidden;fillColor=none;top=0;left=0;bottom=0;right=0;pointerEvents=1;align=left;verticalAlign=top;" vertex="1" parent="-j5Gu1_YpHcUv96Zzp0Z-58">
          <mxGeometry x="750" width="600" height="30" as="geometry">
            <mxRectangle width="600" height="30" as="alternateBounds" />
          </mxGeometry>
        </mxCell>
        <mxCell id="-j5Gu1_YpHcUv96Zzp0Z-64" value="一覧は25件ごとに表示" style="shape=partialRectangle;html=1;whiteSpace=wrap;connectable=0;strokeColor=inherit;overflow=hidden;fillColor=none;top=0;left=0;bottom=0;right=0;pointerEvents=1;align=left;verticalAlign=top;" vertex="1" parent="-j5Gu1_YpHcUv96Zzp0Z-58">
          <mxGeometry x="1350" width="600" height="30" as="geometry">
            <mxRectangle width="600" height="30" as="alternateBounds" />
          </mxGeometry>
        </mxCell>
        <mxCell id="-j5Gu1_YpHcUv96Zzp0Z-65" style="shape=tableRow;horizontal=0;startSize=0;swimlaneHead=0;swimlaneBody=0;strokeColor=inherit;top=0;left=0;bottom=0;right=0;collapsible=0;dropTarget=0;fillColor=none;points=[[0,0.5],[1,0.5]];portConstraint=eastwest;" vertex="1" parent="-j5Gu1_YpHcUv96Zzp0Z-43">
          <mxGeometry y="80" width="1950" height="30" as="geometry" />
        </mxCell>
        <mxCell id="-j5Gu1_YpHcUv96Zzp0Z-66" value="3" style="shape=partialRectangle;html=1;whiteSpace=wrap;connectable=0;strokeColor=inherit;overflow=hidden;fillColor=none;top=0;left=0;bottom=0;right=0;pointerEvents=1;align=right;verticalAlign=top;" vertex="1" parent="-j5Gu1_YpHcUv96Zzp0Z-65">
          <mxGeometry width="50" height="30" as="geometry">
            <mxRectangle width="50" height="30" as="alternateBounds" />
          </mxGeometry>
        </mxCell>
        <mxCell id="-j5Gu1_YpHcUv96Zzp0Z-67" value="メールアドレス" style="shape=partialRectangle;html=1;whiteSpace=wrap;connectable=0;strokeColor=inherit;overflow=hidden;fillColor=none;top=0;left=0;bottom=0;right=0;pointerEvents=1;align=left;verticalAlign=top;" vertex="1" visible="0" parent="-j5Gu1_YpHcUv96Zzp0Z-65">
          <mxGeometry x="50" width="200" height="30" as="geometry">
            <mxRectangle width="200" height="30" as="alternateBounds" />
          </mxGeometry>
        </mxCell>
        <mxCell id="-j5Gu1_YpHcUv96Zzp0Z-68" value="メールアドレス" style="shape=partialRectangle;html=1;whiteSpace=wrap;connectable=0;strokeColor=inherit;overflow=hidden;fillColor=none;top=0;left=0;bottom=0;right=0;pointerEvents=1;align=left;verticalAlign=top;" vertex="1" parent="-j5Gu1_YpHcUv96Zzp0Z-65">
          <mxGeometry x="250" width="350" height="30" as="geometry">
            <mxRectangle width="350" height="30" as="alternateBounds" />
          </mxGeometry>
        </mxCell>
        <mxCell id="-j5Gu1_YpHcUv96Zzp0Z-69" value="テキスト" style="shape=partialRectangle;html=1;whiteSpace=wrap;connectable=0;strokeColor=inherit;overflow=hidden;fillColor=none;top=0;left=0;bottom=0;right=0;pointerEvents=1;" vertex="1" parent="-j5Gu1_YpHcUv96Zzp0Z-65">
          <mxGeometry x="600" width="150" height="30" as="geometry">
            <mxRectangle width="150" height="30" as="alternateBounds" />
          </mxGeometry>
        </mxCell>
        <mxCell id="-j5Gu1_YpHcUv96Zzp0Z-70" value="テーブルに登録されている各ユーザーのメールアドレスを表示" style="shape=partialRectangle;html=1;whiteSpace=wrap;connectable=0;strokeColor=inherit;overflow=hidden;fillColor=none;top=0;left=0;bottom=0;right=0;pointerEvents=1;align=left;verticalAlign=top;" vertex="1" parent="-j5Gu1_YpHcUv96Zzp0Z-65">
          <mxGeometry x="750" width="600" height="30" as="geometry">
            <mxRectangle width="600" height="30" as="alternateBounds" />
          </mxGeometry>
        </mxCell>
        <mxCell id="-j5Gu1_YpHcUv96Zzp0Z-71" value="一覧は25件ごとに表示" style="shape=partialRectangle;html=1;whiteSpace=wrap;connectable=0;strokeColor=inherit;overflow=hidden;fillColor=none;top=0;left=0;bottom=0;right=0;pointerEvents=1;align=left;verticalAlign=top;" vertex="1" parent="-j5Gu1_YpHcUv96Zzp0Z-65">
          <mxGeometry x="1350" width="600" height="30" as="geometry">
            <mxRectangle width="600" height="30" as="alternateBounds" />
          </mxGeometry>
        </mxCell>
        <mxCell id="te-XBZSQbdJ5GE6GOBkj-0" style="shape=tableRow;horizontal=0;startSize=0;swimlaneHead=0;swimlaneBody=0;strokeColor=inherit;top=0;left=0;bottom=0;right=0;collapsible=0;dropTarget=0;fillColor=none;points=[[0,0.5],[1,0.5]];portConstraint=eastwest;" vertex="1" parent="-j5Gu1_YpHcUv96Zzp0Z-43">
          <mxGeometry y="110" width="1950" height="100" as="geometry" />
        </mxCell>
        <mxCell id="te-XBZSQbdJ5GE6GOBkj-1" value="4" style="shape=partialRectangle;html=1;whiteSpace=wrap;connectable=0;strokeColor=inherit;overflow=hidden;fillColor=none;top=0;left=0;bottom=0;right=0;pointerEvents=1;align=right;verticalAlign=top;" vertex="1" parent="te-XBZSQbdJ5GE6GOBkj-0">
          <mxGeometry width="50" height="100" as="geometry">
            <mxRectangle width="50" height="100" as="alternateBounds" />
          </mxGeometry>
        </mxCell>
        <mxCell id="te-XBZSQbdJ5GE6GOBkj-2" value="ロール" style="shape=partialRectangle;html=1;whiteSpace=wrap;connectable=0;strokeColor=inherit;overflow=hidden;fillColor=none;top=0;left=0;bottom=0;right=0;pointerEvents=1;align=left;verticalAlign=top;" vertex="1" visible="0" parent="te-XBZSQbdJ5GE6GOBkj-0">
          <mxGeometry x="50" width="200" height="100" as="geometry">
            <mxRectangle width="200" height="100" as="alternateBounds" />
          </mxGeometry>
        </mxCell>
        <mxCell id="te-XBZSQbdJ5GE6GOBkj-3" value="ロール" style="shape=partialRectangle;html=1;whiteSpace=wrap;connectable=0;strokeColor=inherit;overflow=hidden;fillColor=none;top=0;left=0;bottom=0;right=0;pointerEvents=1;align=left;verticalAlign=top;" vertex="1" parent="te-XBZSQbdJ5GE6GOBkj-0">
          <mxGeometry x="250" width="350" height="100" as="geometry">
            <mxRectangle width="350" height="100" as="alternateBounds" />
          </mxGeometry>
        </mxCell>
        <mxCell id="te-XBZSQbdJ5GE6GOBkj-4" value="テキスト" style="shape=partialRectangle;html=1;whiteSpace=wrap;connectable=0;strokeColor=inherit;overflow=hidden;fillColor=none;top=0;left=0;bottom=0;right=0;pointerEvents=1;" vertex="1" parent="te-XBZSQbdJ5GE6GOBkj-0">
          <mxGeometry x="600" width="150" height="100" as="geometry">
            <mxRectangle width="150" height="100" as="alternateBounds" />
          </mxGeometry>
        </mxCell>
        <mxCell id="te-XBZSQbdJ5GE6GOBkj-5" value="テーブルに登録されている各ユーザーのロールを表示&lt;br&gt;&lt;br&gt;＜ロールの種類＞&lt;br&gt;・管理者&lt;br&gt;・スタッフ&lt;br&gt;・一般ユーザー" style="shape=partialRectangle;html=1;whiteSpace=wrap;connectable=0;strokeColor=inherit;overflow=hidden;fillColor=none;top=0;left=0;bottom=0;right=0;pointerEvents=1;align=left;verticalAlign=top;" vertex="1" parent="te-XBZSQbdJ5GE6GOBkj-0">
          <mxGeometry x="750" width="600" height="100" as="geometry">
            <mxRectangle width="600" height="100" as="alternateBounds" />
          </mxGeometry>
        </mxCell>
        <mxCell id="te-XBZSQbdJ5GE6GOBkj-6" value="一覧は25件ごとに表示" style="shape=partialRectangle;html=1;whiteSpace=wrap;connectable=0;strokeColor=inherit;overflow=hidden;fillColor=none;top=0;left=0;bottom=0;right=0;pointerEvents=1;align=left;verticalAlign=top;" vertex="1" parent="te-XBZSQbdJ5GE6GOBkj-0">
          <mxGeometry x="1350" width="600" height="100" as="geometry">
            <mxRectangle width="600" height="100" as="alternateBounds" />
          </mxGeometry>
        </mxCell>
        <mxCell id="te-XBZSQbdJ5GE6GOBkj-7" style="shape=tableRow;horizontal=0;startSize=0;swimlaneHead=0;swimlaneBody=0;strokeColor=inherit;top=0;left=0;bottom=0;right=0;collapsible=0;dropTarget=0;fillColor=none;points=[[0,0.5],[1,0.5]];portConstraint=eastwest;" vertex="1" parent="-j5Gu1_YpHcUv96Zzp0Z-43">
          <mxGeometry y="210" width="1950" height="20" as="geometry" />
        </mxCell>
        <mxCell id="te-XBZSQbdJ5GE6GOBkj-8" value="" style="shape=partialRectangle;html=1;whiteSpace=wrap;connectable=0;strokeColor=inherit;overflow=hidden;fillColor=none;top=0;left=0;bottom=0;right=0;pointerEvents=1;align=right;" vertex="1" parent="te-XBZSQbdJ5GE6GOBkj-7">
          <mxGeometry width="50" height="20" as="geometry">
            <mxRectangle width="50" height="20" as="alternateBounds" />
          </mxGeometry>
        </mxCell>
        <mxCell id="te-XBZSQbdJ5GE6GOBkj-9" style="shape=partialRectangle;html=1;whiteSpace=wrap;connectable=0;strokeColor=inherit;overflow=hidden;fillColor=none;top=0;left=0;bottom=0;right=0;pointerEvents=1;align=left;" vertex="1" parent="te-XBZSQbdJ5GE6GOBkj-7">
          <mxGeometry x="50" width="200" height="20" as="geometry">
            <mxRectangle width="200" height="20" as="alternateBounds" />
          </mxGeometry>
        </mxCell>
        <mxCell id="te-XBZSQbdJ5GE6GOBkj-10" style="shape=partialRectangle;html=1;whiteSpace=wrap;connectable=0;strokeColor=inherit;overflow=hidden;fillColor=none;top=0;left=0;bottom=0;right=0;pointerEvents=1;align=left;" vertex="1" parent="te-XBZSQbdJ5GE6GOBkj-7">
          <mxGeometry x="250" width="350" height="20" as="geometry">
            <mxRectangle width="350" height="20" as="alternateBounds" />
          </mxGeometry>
        </mxCell>
        <mxCell id="te-XBZSQbdJ5GE6GOBkj-11" style="shape=partialRectangle;html=1;whiteSpace=wrap;connectable=0;strokeColor=inherit;overflow=hidden;fillColor=none;top=0;left=0;bottom=0;right=0;pointerEvents=1;" vertex="1" parent="te-XBZSQbdJ5GE6GOBkj-7">
          <mxGeometry x="600" width="150" height="20" as="geometry">
            <mxRectangle width="150" height="20" as="alternateBounds" />
          </mxGeometry>
        </mxCell>
        <mxCell id="te-XBZSQbdJ5GE6GOBkj-12" style="shape=partialRectangle;html=1;whiteSpace=wrap;connectable=0;strokeColor=inherit;overflow=hidden;fillColor=none;top=0;left=0;bottom=0;right=0;pointerEvents=1;align=left;verticalAlign=top;" vertex="1" parent="te-XBZSQbdJ5GE6GOBkj-7">
          <mxGeometry x="750" width="600" height="20" as="geometry">
            <mxRectangle width="600" height="20" as="alternateBounds" />
          </mxGeometry>
        </mxCell>
        <mxCell id="te-XBZSQbdJ5GE6GOBkj-13" style="shape=partialRectangle;html=1;whiteSpace=wrap;connectable=0;strokeColor=inherit;overflow=hidden;fillColor=none;top=0;left=0;bottom=0;right=0;pointerEvents=1;align=left;verticalAlign=top;" vertex="1" parent="te-XBZSQbdJ5GE6GOBkj-7">
          <mxGeometry x="1350" width="600" height="20" as="geometry">
            <mxRectangle width="600" height="20" as="alternateBounds" />
          </mxGeometry>
        </mxCell>
        <mxCell id="te-XBZSQbdJ5GE6GOBkj-35" style="shape=tableRow;horizontal=0;startSize=0;swimlaneHead=0;swimlaneBody=0;strokeColor=inherit;top=0;left=0;bottom=0;right=0;collapsible=0;dropTarget=0;fillColor=none;points=[[0,0.5],[1,0.5]];portConstraint=eastwest;" vertex="1" parent="-j5Gu1_YpHcUv96Zzp0Z-43">
          <mxGeometry y="230" width="1950" height="20" as="geometry" />
        </mxCell>
        <mxCell id="te-XBZSQbdJ5GE6GOBkj-36" style="shape=partialRectangle;html=1;whiteSpace=wrap;connectable=0;strokeColor=inherit;overflow=hidden;fillColor=none;top=0;left=0;bottom=0;right=0;pointerEvents=1;align=right;" vertex="1" parent="te-XBZSQbdJ5GE6GOBkj-35">
          <mxGeometry width="50" height="20" as="geometry">
            <mxRectangle width="50" height="20" as="alternateBounds" />
          </mxGeometry>
        </mxCell>
        <mxCell id="te-XBZSQbdJ5GE6GOBkj-37" style="shape=partialRectangle;html=1;whiteSpace=wrap;connectable=0;strokeColor=inherit;overflow=hidden;fillColor=none;top=0;left=0;bottom=0;right=0;pointerEvents=1;align=left;" vertex="1" parent="te-XBZSQbdJ5GE6GOBkj-35">
          <mxGeometry x="50" width="200" height="20" as="geometry">
            <mxRectangle width="200" height="20" as="alternateBounds" />
          </mxGeometry>
        </mxCell>
        <mxCell id="te-XBZSQbdJ5GE6GOBkj-38" style="shape=partialRectangle;html=1;whiteSpace=wrap;connectable=0;strokeColor=inherit;overflow=hidden;fillColor=none;top=0;left=0;bottom=0;right=0;pointerEvents=1;align=left;" vertex="1" parent="te-XBZSQbdJ5GE6GOBkj-35">
          <mxGeometry x="250" width="350" height="20" as="geometry">
            <mxRectangle width="350" height="20" as="alternateBounds" />
          </mxGeometry>
        </mxCell>
        <mxCell id="te-XBZSQbdJ5GE6GOBkj-39" style="shape=partialRectangle;html=1;whiteSpace=wrap;connectable=0;strokeColor=inherit;overflow=hidden;fillColor=none;top=0;left=0;bottom=0;right=0;pointerEvents=1;" vertex="1" parent="te-XBZSQbdJ5GE6GOBkj-35">
          <mxGeometry x="600" width="150" height="20" as="geometry">
            <mxRectangle width="150" height="20" as="alternateBounds" />
          </mxGeometry>
        </mxCell>
        <mxCell id="te-XBZSQbdJ5GE6GOBkj-40" style="shape=partialRectangle;html=1;whiteSpace=wrap;connectable=0;strokeColor=inherit;overflow=hidden;fillColor=none;top=0;left=0;bottom=0;right=0;pointerEvents=1;align=left;verticalAlign=top;" vertex="1" parent="te-XBZSQbdJ5GE6GOBkj-35">
          <mxGeometry x="750" width="600" height="20" as="geometry">
            <mxRectangle width="600" height="20" as="alternateBounds" />
          </mxGeometry>
        </mxCell>
        <mxCell id="te-XBZSQbdJ5GE6GOBkj-41" style="shape=partialRectangle;html=1;whiteSpace=wrap;connectable=0;strokeColor=inherit;overflow=hidden;fillColor=none;top=0;left=0;bottom=0;right=0;pointerEvents=1;align=left;verticalAlign=top;" vertex="1" parent="te-XBZSQbdJ5GE6GOBkj-35">
          <mxGeometry x="1350" width="600" height="20" as="geometry">
            <mxRectangle width="600" height="20" as="alternateBounds" />
          </mxGeometry>
        </mxCell>
        <mxCell id="-j5Gu1_YpHcUv96Zzp0Z-72" value="◆出力項目" style="text;strokeColor=none;align=left;fillColor=none;html=1;verticalAlign=middle;whiteSpace=wrap;rounded=0;" vertex="1" parent="-j5Gu1_YpHcUv96Zzp0Z-1">
          <mxGeometry x="80" y="1040" width="90" height="30" as="geometry" />
        </mxCell>
      </root>
    </mxGraphModel>
  </diagram>
  <diagram name="共通フッター" id="6s-pSdCMlXfmOlielun1">
    <mxGraphModel dx="1105" dy="705" grid="1" gridSize="10" guides="1" tooltips="1" connect="1" arrows="1" fold="1" page="1" pageScale="1" pageWidth="1100" pageHeight="850" math="0" shadow="0">
      <root>
        <mxCell id="iCCZxB0_8ySFm_1bK8Bc-0" />
        <mxCell id="iCCZxB0_8ySFm_1bK8Bc-1" parent="iCCZxB0_8ySFm_1bK8Bc-0" />
        <mxCell id="iCCZxB0_8ySFm_1bK8Bc-2" value="共通フッター" style="rounded=0;whiteSpace=wrap;html=1;" parent="iCCZxB0_8ySFm_1bK8Bc-1" vertex="1">
          <mxGeometry x="30" y="20" width="280" height="60" as="geometry" />
        </mxCell>
        <mxCell id="iCCZxB0_8ySFm_1bK8Bc-3" value="" style="rounded=0;whiteSpace=wrap;html=1;fillColor=none;strokeWidth=0.5;" parent="iCCZxB0_8ySFm_1bK8Bc-1" vertex="1">
          <mxGeometry x="80" y="120" width="480" height="600" as="geometry" />
        </mxCell>
        <mxCell id="iCCZxB0_8ySFm_1bK8Bc-4" value="＜画面イメージ＞" style="text;strokeColor=none;align=center;fillColor=none;html=1;verticalAlign=middle;whiteSpace=wrap;rounded=0;" parent="iCCZxB0_8ySFm_1bK8Bc-1" vertex="1">
          <mxGeometry x="50" y="90" width="120" height="30" as="geometry" />
        </mxCell>
        <mxCell id="iCCZxB0_8ySFm_1bK8Bc-5" value="" style="shape=table;startSize=0;container=1;collapsible=0;childLayout=tableLayout;rowLines=1;" parent="iCCZxB0_8ySFm_1bK8Bc-1" vertex="1">
          <mxGeometry x="100" y="800" width="1970" height="80" as="geometry" />
        </mxCell>
        <mxCell id="iCCZxB0_8ySFm_1bK8Bc-6" value="" style="shape=tableRow;horizontal=0;startSize=0;swimlaneHead=0;swimlaneBody=0;strokeColor=inherit;top=0;left=0;bottom=0;right=0;collapsible=0;dropTarget=0;fillColor=none;points=[[0,0.5],[1,0.5]];portConstraint=eastwest;" parent="iCCZxB0_8ySFm_1bK8Bc-5" vertex="1">
          <mxGeometry width="1970" height="20" as="geometry" />
        </mxCell>
        <mxCell id="iCCZxB0_8ySFm_1bK8Bc-7" value="No." style="shape=partialRectangle;html=1;whiteSpace=wrap;connectable=0;strokeColor=inherit;overflow=hidden;fillColor=none;top=0;left=0;bottom=0;right=0;pointerEvents=1;" parent="iCCZxB0_8ySFm_1bK8Bc-6" vertex="1">
          <mxGeometry width="50" height="20" as="geometry">
            <mxRectangle width="50" height="20" as="alternateBounds" />
          </mxGeometry>
        </mxCell>
        <mxCell id="iCCZxB0_8ySFm_1bK8Bc-8" value="エリア名" style="shape=partialRectangle;html=1;whiteSpace=wrap;connectable=0;strokeColor=inherit;overflow=hidden;fillColor=none;top=0;left=0;bottom=0;right=0;pointerEvents=1;" parent="iCCZxB0_8ySFm_1bK8Bc-6" vertex="1">
          <mxGeometry x="50" width="200" height="20" as="geometry">
            <mxRectangle width="200" height="20" as="alternateBounds" />
          </mxGeometry>
        </mxCell>
        <mxCell id="iCCZxB0_8ySFm_1bK8Bc-9" value="入力項目名" style="shape=partialRectangle;html=1;whiteSpace=wrap;connectable=0;strokeColor=inherit;overflow=hidden;fillColor=none;top=0;left=0;bottom=0;right=0;pointerEvents=1;" parent="iCCZxB0_8ySFm_1bK8Bc-6" vertex="1">
          <mxGeometry x="250" width="350" height="20" as="geometry">
            <mxRectangle width="350" height="20" as="alternateBounds" />
          </mxGeometry>
        </mxCell>
        <mxCell id="iCCZxB0_8ySFm_1bK8Bc-10" value="入力形式" style="shape=partialRectangle;html=1;whiteSpace=wrap;connectable=0;strokeColor=inherit;overflow=hidden;fillColor=none;top=0;left=0;bottom=0;right=0;pointerEvents=1;" parent="iCCZxB0_8ySFm_1bK8Bc-6" vertex="1">
          <mxGeometry x="600" width="150" height="20" as="geometry">
            <mxRectangle width="150" height="20" as="alternateBounds" />
          </mxGeometry>
        </mxCell>
        <mxCell id="iCCZxB0_8ySFm_1bK8Bc-11" value="桁数" style="shape=partialRectangle;html=1;whiteSpace=wrap;connectable=0;strokeColor=inherit;overflow=hidden;fillColor=none;top=0;left=0;bottom=0;right=0;pointerEvents=1;" parent="iCCZxB0_8ySFm_1bK8Bc-6" vertex="1">
          <mxGeometry x="750" width="60" height="20" as="geometry">
            <mxRectangle width="60" height="20" as="alternateBounds" />
          </mxGeometry>
        </mxCell>
        <mxCell id="iCCZxB0_8ySFm_1bK8Bc-12" value="必須" style="shape=partialRectangle;html=1;whiteSpace=wrap;connectable=0;strokeColor=inherit;overflow=hidden;fillColor=none;top=0;left=0;bottom=0;right=0;pointerEvents=1;" parent="iCCZxB0_8ySFm_1bK8Bc-6" vertex="1">
          <mxGeometry x="810" width="60" height="20" as="geometry">
            <mxRectangle width="60" height="20" as="alternateBounds" />
          </mxGeometry>
        </mxCell>
        <mxCell id="iCCZxB0_8ySFm_1bK8Bc-13" value="チェック内容" style="shape=partialRectangle;html=1;whiteSpace=wrap;connectable=0;strokeColor=inherit;overflow=hidden;fillColor=none;top=0;left=0;bottom=0;right=0;pointerEvents=1;" parent="iCCZxB0_8ySFm_1bK8Bc-6" vertex="1">
          <mxGeometry x="870" width="600" height="20" as="geometry">
            <mxRectangle width="600" height="20" as="alternateBounds" />
          </mxGeometry>
        </mxCell>
        <mxCell id="iCCZxB0_8ySFm_1bK8Bc-14" value="備考" style="shape=partialRectangle;html=1;whiteSpace=wrap;connectable=0;strokeColor=inherit;overflow=hidden;fillColor=none;top=0;left=0;bottom=0;right=0;pointerEvents=1;" parent="iCCZxB0_8ySFm_1bK8Bc-6" vertex="1">
          <mxGeometry x="1470" width="500" height="20" as="geometry">
            <mxRectangle width="500" height="20" as="alternateBounds" />
          </mxGeometry>
        </mxCell>
        <mxCell id="iCCZxB0_8ySFm_1bK8Bc-15" style="shape=tableRow;horizontal=0;startSize=0;swimlaneHead=0;swimlaneBody=0;strokeColor=inherit;top=0;left=0;bottom=0;right=0;collapsible=0;dropTarget=0;fillColor=none;points=[[0,0.5],[1,0.5]];portConstraint=eastwest;" parent="iCCZxB0_8ySFm_1bK8Bc-5" vertex="1">
          <mxGeometry y="20" width="1970" height="20" as="geometry" />
        </mxCell>
        <mxCell id="iCCZxB0_8ySFm_1bK8Bc-16" style="shape=partialRectangle;html=1;whiteSpace=wrap;connectable=0;strokeColor=inherit;overflow=hidden;fillColor=none;top=0;left=0;bottom=0;right=0;pointerEvents=1;" parent="iCCZxB0_8ySFm_1bK8Bc-15" vertex="1">
          <mxGeometry width="50" height="20" as="geometry">
            <mxRectangle width="50" height="20" as="alternateBounds" />
          </mxGeometry>
        </mxCell>
        <mxCell id="iCCZxB0_8ySFm_1bK8Bc-17" style="shape=partialRectangle;html=1;whiteSpace=wrap;connectable=0;strokeColor=inherit;overflow=hidden;fillColor=none;top=0;left=0;bottom=0;right=0;pointerEvents=1;" parent="iCCZxB0_8ySFm_1bK8Bc-15" vertex="1">
          <mxGeometry x="50" width="200" height="20" as="geometry">
            <mxRectangle width="200" height="20" as="alternateBounds" />
          </mxGeometry>
        </mxCell>
        <mxCell id="iCCZxB0_8ySFm_1bK8Bc-18" style="shape=partialRectangle;html=1;whiteSpace=wrap;connectable=0;strokeColor=inherit;overflow=hidden;fillColor=none;top=0;left=0;bottom=0;right=0;pointerEvents=1;" parent="iCCZxB0_8ySFm_1bK8Bc-15" vertex="1">
          <mxGeometry x="250" width="350" height="20" as="geometry">
            <mxRectangle width="350" height="20" as="alternateBounds" />
          </mxGeometry>
        </mxCell>
        <mxCell id="iCCZxB0_8ySFm_1bK8Bc-19" style="shape=partialRectangle;html=1;whiteSpace=wrap;connectable=0;strokeColor=inherit;overflow=hidden;fillColor=none;top=0;left=0;bottom=0;right=0;pointerEvents=1;" parent="iCCZxB0_8ySFm_1bK8Bc-15" vertex="1">
          <mxGeometry x="600" width="150" height="20" as="geometry">
            <mxRectangle width="150" height="20" as="alternateBounds" />
          </mxGeometry>
        </mxCell>
        <mxCell id="iCCZxB0_8ySFm_1bK8Bc-20" style="shape=partialRectangle;html=1;whiteSpace=wrap;connectable=0;strokeColor=inherit;overflow=hidden;fillColor=none;top=0;left=0;bottom=0;right=0;pointerEvents=1;" parent="iCCZxB0_8ySFm_1bK8Bc-15" vertex="1">
          <mxGeometry x="750" width="60" height="20" as="geometry">
            <mxRectangle width="60" height="20" as="alternateBounds" />
          </mxGeometry>
        </mxCell>
        <mxCell id="iCCZxB0_8ySFm_1bK8Bc-21" style="shape=partialRectangle;html=1;whiteSpace=wrap;connectable=0;strokeColor=inherit;overflow=hidden;fillColor=none;top=0;left=0;bottom=0;right=0;pointerEvents=1;" parent="iCCZxB0_8ySFm_1bK8Bc-15" vertex="1">
          <mxGeometry x="810" width="60" height="20" as="geometry">
            <mxRectangle width="60" height="20" as="alternateBounds" />
          </mxGeometry>
        </mxCell>
        <mxCell id="iCCZxB0_8ySFm_1bK8Bc-22" style="shape=partialRectangle;html=1;whiteSpace=wrap;connectable=0;strokeColor=inherit;overflow=hidden;fillColor=none;top=0;left=0;bottom=0;right=0;pointerEvents=1;" parent="iCCZxB0_8ySFm_1bK8Bc-15" vertex="1">
          <mxGeometry x="870" width="600" height="20" as="geometry">
            <mxRectangle width="600" height="20" as="alternateBounds" />
          </mxGeometry>
        </mxCell>
        <mxCell id="iCCZxB0_8ySFm_1bK8Bc-23" style="shape=partialRectangle;html=1;whiteSpace=wrap;connectable=0;strokeColor=inherit;overflow=hidden;fillColor=none;top=0;left=0;bottom=0;right=0;pointerEvents=1;" parent="iCCZxB0_8ySFm_1bK8Bc-15" vertex="1">
          <mxGeometry x="1470" width="500" height="20" as="geometry">
            <mxRectangle width="500" height="20" as="alternateBounds" />
          </mxGeometry>
        </mxCell>
        <mxCell id="iCCZxB0_8ySFm_1bK8Bc-24" style="shape=tableRow;horizontal=0;startSize=0;swimlaneHead=0;swimlaneBody=0;strokeColor=inherit;top=0;left=0;bottom=0;right=0;collapsible=0;dropTarget=0;fillColor=none;points=[[0,0.5],[1,0.5]];portConstraint=eastwest;" parent="iCCZxB0_8ySFm_1bK8Bc-5" vertex="1">
          <mxGeometry y="40" width="1970" height="20" as="geometry" />
        </mxCell>
        <mxCell id="iCCZxB0_8ySFm_1bK8Bc-25" style="shape=partialRectangle;html=1;whiteSpace=wrap;connectable=0;strokeColor=inherit;overflow=hidden;fillColor=none;top=0;left=0;bottom=0;right=0;pointerEvents=1;" parent="iCCZxB0_8ySFm_1bK8Bc-24" vertex="1">
          <mxGeometry width="50" height="20" as="geometry">
            <mxRectangle width="50" height="20" as="alternateBounds" />
          </mxGeometry>
        </mxCell>
        <mxCell id="iCCZxB0_8ySFm_1bK8Bc-26" style="shape=partialRectangle;html=1;whiteSpace=wrap;connectable=0;strokeColor=inherit;overflow=hidden;fillColor=none;top=0;left=0;bottom=0;right=0;pointerEvents=1;" parent="iCCZxB0_8ySFm_1bK8Bc-24" vertex="1">
          <mxGeometry x="50" width="200" height="20" as="geometry">
            <mxRectangle width="200" height="20" as="alternateBounds" />
          </mxGeometry>
        </mxCell>
        <mxCell id="iCCZxB0_8ySFm_1bK8Bc-27" style="shape=partialRectangle;html=1;whiteSpace=wrap;connectable=0;strokeColor=inherit;overflow=hidden;fillColor=none;top=0;left=0;bottom=0;right=0;pointerEvents=1;" parent="iCCZxB0_8ySFm_1bK8Bc-24" vertex="1">
          <mxGeometry x="250" width="350" height="20" as="geometry">
            <mxRectangle width="350" height="20" as="alternateBounds" />
          </mxGeometry>
        </mxCell>
        <mxCell id="iCCZxB0_8ySFm_1bK8Bc-28" style="shape=partialRectangle;html=1;whiteSpace=wrap;connectable=0;strokeColor=inherit;overflow=hidden;fillColor=none;top=0;left=0;bottom=0;right=0;pointerEvents=1;" parent="iCCZxB0_8ySFm_1bK8Bc-24" vertex="1">
          <mxGeometry x="600" width="150" height="20" as="geometry">
            <mxRectangle width="150" height="20" as="alternateBounds" />
          </mxGeometry>
        </mxCell>
        <mxCell id="iCCZxB0_8ySFm_1bK8Bc-29" style="shape=partialRectangle;html=1;whiteSpace=wrap;connectable=0;strokeColor=inherit;overflow=hidden;fillColor=none;top=0;left=0;bottom=0;right=0;pointerEvents=1;" parent="iCCZxB0_8ySFm_1bK8Bc-24" vertex="1">
          <mxGeometry x="750" width="60" height="20" as="geometry">
            <mxRectangle width="60" height="20" as="alternateBounds" />
          </mxGeometry>
        </mxCell>
        <mxCell id="iCCZxB0_8ySFm_1bK8Bc-30" style="shape=partialRectangle;html=1;whiteSpace=wrap;connectable=0;strokeColor=inherit;overflow=hidden;fillColor=none;top=0;left=0;bottom=0;right=0;pointerEvents=1;" parent="iCCZxB0_8ySFm_1bK8Bc-24" vertex="1">
          <mxGeometry x="810" width="60" height="20" as="geometry">
            <mxRectangle width="60" height="20" as="alternateBounds" />
          </mxGeometry>
        </mxCell>
        <mxCell id="iCCZxB0_8ySFm_1bK8Bc-31" style="shape=partialRectangle;html=1;whiteSpace=wrap;connectable=0;strokeColor=inherit;overflow=hidden;fillColor=none;top=0;left=0;bottom=0;right=0;pointerEvents=1;" parent="iCCZxB0_8ySFm_1bK8Bc-24" vertex="1">
          <mxGeometry x="870" width="600" height="20" as="geometry">
            <mxRectangle width="600" height="20" as="alternateBounds" />
          </mxGeometry>
        </mxCell>
        <mxCell id="iCCZxB0_8ySFm_1bK8Bc-32" style="shape=partialRectangle;html=1;whiteSpace=wrap;connectable=0;strokeColor=inherit;overflow=hidden;fillColor=none;top=0;left=0;bottom=0;right=0;pointerEvents=1;" parent="iCCZxB0_8ySFm_1bK8Bc-24" vertex="1">
          <mxGeometry x="1470" width="500" height="20" as="geometry">
            <mxRectangle width="500" height="20" as="alternateBounds" />
          </mxGeometry>
        </mxCell>
        <mxCell id="iCCZxB0_8ySFm_1bK8Bc-33" style="shape=tableRow;horizontal=0;startSize=0;swimlaneHead=0;swimlaneBody=0;strokeColor=inherit;top=0;left=0;bottom=0;right=0;collapsible=0;dropTarget=0;fillColor=none;points=[[0,0.5],[1,0.5]];portConstraint=eastwest;" parent="iCCZxB0_8ySFm_1bK8Bc-5" vertex="1">
          <mxGeometry y="60" width="1970" height="20" as="geometry" />
        </mxCell>
        <mxCell id="iCCZxB0_8ySFm_1bK8Bc-34" style="shape=partialRectangle;html=1;whiteSpace=wrap;connectable=0;strokeColor=inherit;overflow=hidden;fillColor=none;top=0;left=0;bottom=0;right=0;pointerEvents=1;" parent="iCCZxB0_8ySFm_1bK8Bc-33" vertex="1">
          <mxGeometry width="50" height="20" as="geometry">
            <mxRectangle width="50" height="20" as="alternateBounds" />
          </mxGeometry>
        </mxCell>
        <mxCell id="iCCZxB0_8ySFm_1bK8Bc-35" style="shape=partialRectangle;html=1;whiteSpace=wrap;connectable=0;strokeColor=inherit;overflow=hidden;fillColor=none;top=0;left=0;bottom=0;right=0;pointerEvents=1;" parent="iCCZxB0_8ySFm_1bK8Bc-33" vertex="1">
          <mxGeometry x="50" width="200" height="20" as="geometry">
            <mxRectangle width="200" height="20" as="alternateBounds" />
          </mxGeometry>
        </mxCell>
        <mxCell id="iCCZxB0_8ySFm_1bK8Bc-36" style="shape=partialRectangle;html=1;whiteSpace=wrap;connectable=0;strokeColor=inherit;overflow=hidden;fillColor=none;top=0;left=0;bottom=0;right=0;pointerEvents=1;" parent="iCCZxB0_8ySFm_1bK8Bc-33" vertex="1">
          <mxGeometry x="250" width="350" height="20" as="geometry">
            <mxRectangle width="350" height="20" as="alternateBounds" />
          </mxGeometry>
        </mxCell>
        <mxCell id="iCCZxB0_8ySFm_1bK8Bc-37" style="shape=partialRectangle;html=1;whiteSpace=wrap;connectable=0;strokeColor=inherit;overflow=hidden;fillColor=none;top=0;left=0;bottom=0;right=0;pointerEvents=1;" parent="iCCZxB0_8ySFm_1bK8Bc-33" vertex="1">
          <mxGeometry x="600" width="150" height="20" as="geometry">
            <mxRectangle width="150" height="20" as="alternateBounds" />
          </mxGeometry>
        </mxCell>
        <mxCell id="iCCZxB0_8ySFm_1bK8Bc-38" style="shape=partialRectangle;html=1;whiteSpace=wrap;connectable=0;strokeColor=inherit;overflow=hidden;fillColor=none;top=0;left=0;bottom=0;right=0;pointerEvents=1;" parent="iCCZxB0_8ySFm_1bK8Bc-33" vertex="1">
          <mxGeometry x="750" width="60" height="20" as="geometry">
            <mxRectangle width="60" height="20" as="alternateBounds" />
          </mxGeometry>
        </mxCell>
        <mxCell id="iCCZxB0_8ySFm_1bK8Bc-39" style="shape=partialRectangle;html=1;whiteSpace=wrap;connectable=0;strokeColor=inherit;overflow=hidden;fillColor=none;top=0;left=0;bottom=0;right=0;pointerEvents=1;" parent="iCCZxB0_8ySFm_1bK8Bc-33" vertex="1">
          <mxGeometry x="810" width="60" height="20" as="geometry">
            <mxRectangle width="60" height="20" as="alternateBounds" />
          </mxGeometry>
        </mxCell>
        <mxCell id="iCCZxB0_8ySFm_1bK8Bc-40" style="shape=partialRectangle;html=1;whiteSpace=wrap;connectable=0;strokeColor=inherit;overflow=hidden;fillColor=none;top=0;left=0;bottom=0;right=0;pointerEvents=1;" parent="iCCZxB0_8ySFm_1bK8Bc-33" vertex="1">
          <mxGeometry x="870" width="600" height="20" as="geometry">
            <mxRectangle width="600" height="20" as="alternateBounds" />
          </mxGeometry>
        </mxCell>
        <mxCell id="iCCZxB0_8ySFm_1bK8Bc-41" style="shape=partialRectangle;html=1;whiteSpace=wrap;connectable=0;strokeColor=inherit;overflow=hidden;fillColor=none;top=0;left=0;bottom=0;right=0;pointerEvents=1;" parent="iCCZxB0_8ySFm_1bK8Bc-33" vertex="1">
          <mxGeometry x="1470" width="500" height="20" as="geometry">
            <mxRectangle width="500" height="20" as="alternateBounds" />
          </mxGeometry>
        </mxCell>
        <mxCell id="iCCZxB0_8ySFm_1bK8Bc-42" value="◆入力項目" style="text;strokeColor=none;align=left;fillColor=none;html=1;verticalAlign=middle;whiteSpace=wrap;rounded=0;" parent="iCCZxB0_8ySFm_1bK8Bc-1" vertex="1">
          <mxGeometry x="80" y="770" width="90" height="30" as="geometry" />
        </mxCell>
        <mxCell id="iCCZxB0_8ySFm_1bK8Bc-43" value="" style="shape=table;startSize=0;container=1;collapsible=0;childLayout=tableLayout;rowLines=1;align=left;" parent="iCCZxB0_8ySFm_1bK8Bc-1" vertex="1">
          <mxGeometry x="100" y="990" width="1950" height="100" as="geometry" />
        </mxCell>
        <mxCell id="iCCZxB0_8ySFm_1bK8Bc-44" value="" style="shape=tableRow;horizontal=0;startSize=0;swimlaneHead=0;swimlaneBody=0;strokeColor=inherit;top=0;left=0;bottom=0;right=0;collapsible=0;dropTarget=0;fillColor=none;points=[[0,0.5],[1,0.5]];portConstraint=eastwest;" parent="iCCZxB0_8ySFm_1bK8Bc-43" vertex="1">
          <mxGeometry width="1950" height="20" as="geometry" />
        </mxCell>
        <mxCell id="iCCZxB0_8ySFm_1bK8Bc-45" value="No." style="shape=partialRectangle;html=1;whiteSpace=wrap;connectable=0;strokeColor=inherit;overflow=hidden;fillColor=none;top=0;left=0;bottom=0;right=0;pointerEvents=1;" parent="iCCZxB0_8ySFm_1bK8Bc-44" vertex="1">
          <mxGeometry width="50" height="20" as="geometry">
            <mxRectangle width="50" height="20" as="alternateBounds" />
          </mxGeometry>
        </mxCell>
        <mxCell id="iCCZxB0_8ySFm_1bK8Bc-46" value="エリア名" style="shape=partialRectangle;html=1;whiteSpace=wrap;connectable=0;strokeColor=inherit;overflow=hidden;fillColor=none;top=0;left=0;bottom=0;right=0;pointerEvents=1;" parent="iCCZxB0_8ySFm_1bK8Bc-44" vertex="1">
          <mxGeometry x="50" width="200" height="20" as="geometry">
            <mxRectangle width="200" height="20" as="alternateBounds" />
          </mxGeometry>
        </mxCell>
        <mxCell id="iCCZxB0_8ySFm_1bK8Bc-47" value="出力項目名" style="shape=partialRectangle;html=1;whiteSpace=wrap;connectable=0;strokeColor=inherit;overflow=hidden;fillColor=none;top=0;left=0;bottom=0;right=0;pointerEvents=1;" parent="iCCZxB0_8ySFm_1bK8Bc-44" vertex="1">
          <mxGeometry x="250" width="350" height="20" as="geometry">
            <mxRectangle width="350" height="20" as="alternateBounds" />
          </mxGeometry>
        </mxCell>
        <mxCell id="iCCZxB0_8ySFm_1bK8Bc-48" value="出力形式" style="shape=partialRectangle;html=1;whiteSpace=wrap;connectable=0;strokeColor=inherit;overflow=hidden;fillColor=none;top=0;left=0;bottom=0;right=0;pointerEvents=1;" parent="iCCZxB0_8ySFm_1bK8Bc-44" vertex="1">
          <mxGeometry x="600" width="150" height="20" as="geometry">
            <mxRectangle width="150" height="20" as="alternateBounds" />
          </mxGeometry>
        </mxCell>
        <mxCell id="iCCZxB0_8ySFm_1bK8Bc-49" value="説明" style="shape=partialRectangle;html=1;whiteSpace=wrap;connectable=0;strokeColor=inherit;overflow=hidden;fillColor=none;top=0;left=0;bottom=0;right=0;pointerEvents=1;" parent="iCCZxB0_8ySFm_1bK8Bc-44" vertex="1">
          <mxGeometry x="750" width="600" height="20" as="geometry">
            <mxRectangle width="600" height="20" as="alternateBounds" />
          </mxGeometry>
        </mxCell>
        <mxCell id="iCCZxB0_8ySFm_1bK8Bc-50" value="備考" style="shape=partialRectangle;html=1;whiteSpace=wrap;connectable=0;strokeColor=inherit;overflow=hidden;fillColor=none;top=0;left=0;bottom=0;right=0;pointerEvents=1;" parent="iCCZxB0_8ySFm_1bK8Bc-44" vertex="1">
          <mxGeometry x="1350" width="600" height="20" as="geometry">
            <mxRectangle width="600" height="20" as="alternateBounds" />
          </mxGeometry>
        </mxCell>
        <mxCell id="iCCZxB0_8ySFm_1bK8Bc-51" style="shape=tableRow;horizontal=0;startSize=0;swimlaneHead=0;swimlaneBody=0;strokeColor=inherit;top=0;left=0;bottom=0;right=0;collapsible=0;dropTarget=0;fillColor=none;points=[[0,0.5],[1,0.5]];portConstraint=eastwest;" parent="iCCZxB0_8ySFm_1bK8Bc-43" vertex="1">
          <mxGeometry y="20" width="1950" height="40" as="geometry" />
        </mxCell>
        <mxCell id="iCCZxB0_8ySFm_1bK8Bc-52" value="1" style="shape=partialRectangle;html=1;whiteSpace=wrap;connectable=0;strokeColor=inherit;overflow=hidden;fillColor=none;top=0;left=0;bottom=0;right=0;pointerEvents=1;align=right;" parent="iCCZxB0_8ySFm_1bK8Bc-51" vertex="1">
          <mxGeometry width="50" height="40" as="geometry">
            <mxRectangle width="50" height="40" as="alternateBounds" />
          </mxGeometry>
        </mxCell>
        <mxCell id="iCCZxB0_8ySFm_1bK8Bc-53" value="フッター" style="shape=partialRectangle;html=1;whiteSpace=wrap;connectable=0;strokeColor=inherit;overflow=hidden;fillColor=none;top=0;left=0;bottom=0;right=0;pointerEvents=1;align=left;" parent="iCCZxB0_8ySFm_1bK8Bc-51" vertex="1">
          <mxGeometry x="50" width="200" height="40" as="geometry">
            <mxRectangle width="200" height="40" as="alternateBounds" />
          </mxGeometry>
        </mxCell>
        <mxCell id="iCCZxB0_8ySFm_1bK8Bc-54" value="©2023 LT Events" style="shape=partialRectangle;html=1;whiteSpace=wrap;connectable=0;strokeColor=inherit;overflow=hidden;fillColor=none;top=0;left=0;bottom=0;right=0;pointerEvents=1;align=left;" parent="iCCZxB0_8ySFm_1bK8Bc-51" vertex="1">
          <mxGeometry x="250" width="350" height="40" as="geometry">
            <mxRectangle width="350" height="40" as="alternateBounds" />
          </mxGeometry>
        </mxCell>
        <mxCell id="iCCZxB0_8ySFm_1bK8Bc-55" value="ラベル" style="shape=partialRectangle;html=1;whiteSpace=wrap;connectable=0;strokeColor=inherit;overflow=hidden;fillColor=none;top=0;left=0;bottom=0;right=0;pointerEvents=1;" parent="iCCZxB0_8ySFm_1bK8Bc-51" vertex="1">
          <mxGeometry x="600" width="150" height="40" as="geometry">
            <mxRectangle width="150" height="40" as="alternateBounds" />
          </mxGeometry>
        </mxCell>
        <mxCell id="iCCZxB0_8ySFm_1bK8Bc-56" value="「2023」はアクセス時点の年を表示&lt;br&gt;画面表示の際に自動で年を取得" style="shape=partialRectangle;html=1;whiteSpace=wrap;connectable=0;strokeColor=inherit;overflow=hidden;fillColor=none;top=0;left=0;bottom=0;right=0;pointerEvents=1;align=left;verticalAlign=top;" parent="iCCZxB0_8ySFm_1bK8Bc-51" vertex="1">
          <mxGeometry x="750" width="600" height="40" as="geometry">
            <mxRectangle width="600" height="40" as="alternateBounds" />
          </mxGeometry>
        </mxCell>
        <mxCell id="iCCZxB0_8ySFm_1bK8Bc-57" style="shape=partialRectangle;html=1;whiteSpace=wrap;connectable=0;strokeColor=inherit;overflow=hidden;fillColor=none;top=0;left=0;bottom=0;right=0;pointerEvents=1;align=left;verticalAlign=top;" parent="iCCZxB0_8ySFm_1bK8Bc-51" vertex="1">
          <mxGeometry x="1350" width="600" height="40" as="geometry">
            <mxRectangle width="600" height="40" as="alternateBounds" />
          </mxGeometry>
        </mxCell>
        <mxCell id="iCCZxB0_8ySFm_1bK8Bc-58" style="shape=tableRow;horizontal=0;startSize=0;swimlaneHead=0;swimlaneBody=0;strokeColor=inherit;top=0;left=0;bottom=0;right=0;collapsible=0;dropTarget=0;fillColor=none;points=[[0,0.5],[1,0.5]];portConstraint=eastwest;" parent="iCCZxB0_8ySFm_1bK8Bc-43" vertex="1">
          <mxGeometry y="60" width="1950" height="20" as="geometry" />
        </mxCell>
        <mxCell id="iCCZxB0_8ySFm_1bK8Bc-59" style="shape=partialRectangle;html=1;whiteSpace=wrap;connectable=0;strokeColor=inherit;overflow=hidden;fillColor=none;top=0;left=0;bottom=0;right=0;pointerEvents=1;" parent="iCCZxB0_8ySFm_1bK8Bc-58" vertex="1">
          <mxGeometry width="50" height="20" as="geometry">
            <mxRectangle width="50" height="20" as="alternateBounds" />
          </mxGeometry>
        </mxCell>
        <mxCell id="iCCZxB0_8ySFm_1bK8Bc-60" style="shape=partialRectangle;html=1;whiteSpace=wrap;connectable=0;strokeColor=inherit;overflow=hidden;fillColor=none;top=0;left=0;bottom=0;right=0;pointerEvents=1;" parent="iCCZxB0_8ySFm_1bK8Bc-58" vertex="1">
          <mxGeometry x="50" width="200" height="20" as="geometry">
            <mxRectangle width="200" height="20" as="alternateBounds" />
          </mxGeometry>
        </mxCell>
        <mxCell id="iCCZxB0_8ySFm_1bK8Bc-61" style="shape=partialRectangle;html=1;whiteSpace=wrap;connectable=0;strokeColor=inherit;overflow=hidden;fillColor=none;top=0;left=0;bottom=0;right=0;pointerEvents=1;" parent="iCCZxB0_8ySFm_1bK8Bc-58" vertex="1">
          <mxGeometry x="250" width="350" height="20" as="geometry">
            <mxRectangle width="350" height="20" as="alternateBounds" />
          </mxGeometry>
        </mxCell>
        <mxCell id="iCCZxB0_8ySFm_1bK8Bc-62" style="shape=partialRectangle;html=1;whiteSpace=wrap;connectable=0;strokeColor=inherit;overflow=hidden;fillColor=none;top=0;left=0;bottom=0;right=0;pointerEvents=1;" parent="iCCZxB0_8ySFm_1bK8Bc-58" vertex="1">
          <mxGeometry x="600" width="150" height="20" as="geometry">
            <mxRectangle width="150" height="20" as="alternateBounds" />
          </mxGeometry>
        </mxCell>
        <mxCell id="iCCZxB0_8ySFm_1bK8Bc-63" style="shape=partialRectangle;html=1;whiteSpace=wrap;connectable=0;strokeColor=inherit;overflow=hidden;fillColor=none;top=0;left=0;bottom=0;right=0;pointerEvents=1;" parent="iCCZxB0_8ySFm_1bK8Bc-58" vertex="1">
          <mxGeometry x="750" width="600" height="20" as="geometry">
            <mxRectangle width="600" height="20" as="alternateBounds" />
          </mxGeometry>
        </mxCell>
        <mxCell id="iCCZxB0_8ySFm_1bK8Bc-64" style="shape=partialRectangle;html=1;whiteSpace=wrap;connectable=0;strokeColor=inherit;overflow=hidden;fillColor=none;top=0;left=0;bottom=0;right=0;pointerEvents=1;" parent="iCCZxB0_8ySFm_1bK8Bc-58" vertex="1">
          <mxGeometry x="1350" width="600" height="20" as="geometry">
            <mxRectangle width="600" height="20" as="alternateBounds" />
          </mxGeometry>
        </mxCell>
        <mxCell id="iCCZxB0_8ySFm_1bK8Bc-65" style="shape=tableRow;horizontal=0;startSize=0;swimlaneHead=0;swimlaneBody=0;strokeColor=inherit;top=0;left=0;bottom=0;right=0;collapsible=0;dropTarget=0;fillColor=none;points=[[0,0.5],[1,0.5]];portConstraint=eastwest;" parent="iCCZxB0_8ySFm_1bK8Bc-43" vertex="1">
          <mxGeometry y="80" width="1950" height="20" as="geometry" />
        </mxCell>
        <mxCell id="iCCZxB0_8ySFm_1bK8Bc-66" style="shape=partialRectangle;html=1;whiteSpace=wrap;connectable=0;strokeColor=inherit;overflow=hidden;fillColor=none;top=0;left=0;bottom=0;right=0;pointerEvents=1;" parent="iCCZxB0_8ySFm_1bK8Bc-65" vertex="1">
          <mxGeometry width="50" height="20" as="geometry">
            <mxRectangle width="50" height="20" as="alternateBounds" />
          </mxGeometry>
        </mxCell>
        <mxCell id="iCCZxB0_8ySFm_1bK8Bc-67" style="shape=partialRectangle;html=1;whiteSpace=wrap;connectable=0;strokeColor=inherit;overflow=hidden;fillColor=none;top=0;left=0;bottom=0;right=0;pointerEvents=1;" parent="iCCZxB0_8ySFm_1bK8Bc-65" vertex="1">
          <mxGeometry x="50" width="200" height="20" as="geometry">
            <mxRectangle width="200" height="20" as="alternateBounds" />
          </mxGeometry>
        </mxCell>
        <mxCell id="iCCZxB0_8ySFm_1bK8Bc-68" style="shape=partialRectangle;html=1;whiteSpace=wrap;connectable=0;strokeColor=inherit;overflow=hidden;fillColor=none;top=0;left=0;bottom=0;right=0;pointerEvents=1;" parent="iCCZxB0_8ySFm_1bK8Bc-65" vertex="1">
          <mxGeometry x="250" width="350" height="20" as="geometry">
            <mxRectangle width="350" height="20" as="alternateBounds" />
          </mxGeometry>
        </mxCell>
        <mxCell id="iCCZxB0_8ySFm_1bK8Bc-69" style="shape=partialRectangle;html=1;whiteSpace=wrap;connectable=0;strokeColor=inherit;overflow=hidden;fillColor=none;top=0;left=0;bottom=0;right=0;pointerEvents=1;" parent="iCCZxB0_8ySFm_1bK8Bc-65" vertex="1">
          <mxGeometry x="600" width="150" height="20" as="geometry">
            <mxRectangle width="150" height="20" as="alternateBounds" />
          </mxGeometry>
        </mxCell>
        <mxCell id="iCCZxB0_8ySFm_1bK8Bc-70" style="shape=partialRectangle;html=1;whiteSpace=wrap;connectable=0;strokeColor=inherit;overflow=hidden;fillColor=none;top=0;left=0;bottom=0;right=0;pointerEvents=1;" parent="iCCZxB0_8ySFm_1bK8Bc-65" vertex="1">
          <mxGeometry x="750" width="600" height="20" as="geometry">
            <mxRectangle width="600" height="20" as="alternateBounds" />
          </mxGeometry>
        </mxCell>
        <mxCell id="iCCZxB0_8ySFm_1bK8Bc-71" style="shape=partialRectangle;html=1;whiteSpace=wrap;connectable=0;strokeColor=inherit;overflow=hidden;fillColor=none;top=0;left=0;bottom=0;right=0;pointerEvents=1;" parent="iCCZxB0_8ySFm_1bK8Bc-65" vertex="1">
          <mxGeometry x="1350" width="600" height="20" as="geometry">
            <mxRectangle width="600" height="20" as="alternateBounds" />
          </mxGeometry>
        </mxCell>
        <mxCell id="iCCZxB0_8ySFm_1bK8Bc-72" value="◆出力項目" style="text;strokeColor=none;align=left;fillColor=none;html=1;verticalAlign=middle;whiteSpace=wrap;rounded=0;" parent="iCCZxB0_8ySFm_1bK8Bc-1" vertex="1">
          <mxGeometry x="80" y="960" width="90" height="30" as="geometry" />
        </mxCell>
      </root>
    </mxGraphModel>
  </diagram>
</mxfile>
